<?xml version="1.0" encoding="UTF-8"?>
<svg xmlns="http://www.w3.org/2000/svg" xmlns:xlink="http://www.w3.org/1999/xlink" viewBox="0 0 1621.3 928.65">
  <defs>
    <style>
      .cls-1{letter-spacing:0em;}.cls-2{fill:#d8cfca;}.cls-3{fill:#d2a1a0;}.cls-4{fill:#d86a78;}.cls-5,.cls-6,.cls-7,.cls-8,.cls-9{stroke-linecap:round;}.cls-5,.cls-6,.cls-7,.cls-8,.cls-9,.cls-10{fill:none;stroke-miterlimit:10;}.cls-5,.cls-8{stroke-width:15px;}.cls-5,.cls-10{stroke:#d86a78;}.cls-11{mask:url(#mask-1);}.cls-12{fill:#bfb5af;}.cls-13{letter-spacing:0em;}.cls-14{fill:#b6aca7;}.cls-6{stroke-width:3px;}.cls-6,.cls-7,.cls-8,.cls-9{stroke:#68a5ec;}.cls-15{fill:#867d73;}.cls-16{fill:#f2e5dd;}.cls-17{fill:#97908b;}.cls-18{fill:#c44d4d;}.cls-19{mask:url(#mask);}.cls-20{fill:#837e75;}.cls-21{fill:#68a5ec;}.cls-22{fill:#9a8f85;}.cls-7,.cls-23{stroke-width:2px;}.cls-24{fill:#aa5252;}.cls-25{letter-spacing:0em;}.cls-26{fill:#4b4845;}.cls-27{font-size:48px;}.cls-27,.cls-28{font-family:MyriadPro-Regular, &apos;Myriad Pro&apos;;}.cls-29{fill:#e2cbc1;}.cls-28{font-size:60px;}.cls-30{letter-spacing:0em;}.cls-31{fill:#b68580;}.cls-32{letter-spacing:-.03em;}.cls-33{fill:#cfc6c1;}.cls-34{fill:#f3b1b1;}.cls-35{letter-spacing:0em;}.cls-36{fill:#d2d2d2;}.cls-37{fill:#e5a5a5;}.cls-38{fill:#a09792;}.cls-39{fill:#a6a092;}.cls-9,.cls-10{stroke-width:40px;}.cls-40{fill:#b6aea1;}.cls-41{fill:#baaea8;}.cls-23{fill:#c19c7d;stroke:#a07a5f;}.cls-42{letter-spacing:-.01em;}.cls-43{fill:#d2d2d2;}.cls-44{fill:url(#linear-gradient);}.cls-45{fill:#e1a6a6;}.cls-46{letter-spacing:.02em;}.cls-47{fill:#cfb4ae;}.cls-48{fill:#837973;}.cls-49{fill:url(#White_Black);}
    </style>
    <linearGradient id="linear-gradient" x1="770.89" y1="485.97" x2="727.22" y2="700.51" gradientUnits="userSpaceOnUse">
      <stop offset=".22" stop-color="#fff"/>
      <stop offset="1" stop-color="#000"/>
    </linearGradient>
    <mask id="mask" x="683.35" y="494.26" width="131.69" height="216.31" maskUnits="userSpaceOnUse">
      <rect class="cls-44" x="683.35" y="494.26" width="131.69" height="196.62"/>
    </mask>
    <linearGradient id="White_Black" x1="1340.56" y1="933.99" x2="1340.56" y2="1435.54" gradientTransform="translate(-525.9 -468.85)" gradientUnits="userSpaceOnUse">
      <stop offset="0" stop-color="#fff"/>
      <stop offset="1" stop-color="#000"/>
    </linearGradient>
    <mask id="mask-1" x="297.87" y="460.34" width="1033.6" height="796.74" maskUnits="userSpaceOnUse">
      <rect class="cls-49" x="330.58" y="506.93" width="968.17" height="703.56" transform="translate(89.84 -77.07) rotate(5.73)"/>
    </mask>
  </defs>
  <g id="Body">
    <path class="cls-16" d="M333.8,789.2c1.85-.21,3.69-.47,5.52-.77,9.85-1.62,19.5-4.45,29.03-7.96,5.39-1.99,10.74-4.2,16.07-6.53,5.65-2.47,11.27-5.09,16.88-7.73,9.93-4.67,19.82-9.43,29.78-13.65,17.18-7.28,34.55-12.94,52.58-13.76,7.54-.34,15.2.16,23.01,1.75,9.98,5.02,13.37,12.64,16.77,24.09,1.56,5.24,3.21,10.2,3.96,14.87-1.23-11.09-3.79-26.72-3.71-35.09.06-7.12,2.43-30.26,5.78-40.79,5.36-16.85,12.51-24.99,24.13-39.1,8.04-9.77,23.41-23.43,26.65-27.16,25.66-29.49,22.03-32.99,40.34-51.3,14.17-14.17,43.8-38.47,49.79-45.96,4.67-5.85,18.35-18.75,17.23-18.77-7.12-.08-58.06,2.12-72.03,1.11-8.34-.6-18.03-1.29-29.2-2.16-11.88.47-20.17-2.29-26.1-7.12-21.23-17.27-12.38-60.97-30.75-77.77-7.43-6.79-19.3-9.18-39.41-3.65-15.07-13.06-18.93-15.07-37.9-9.01-18.05-14.36-19.82,2.05-37.03,5.08-1.22-1.3-2.24-2.78-3.15-4.37-5.4-9.51-6.36-23-17.31-26.78-16.96.56-28.54,12.23-39.95,24.03-7.21,7.45-14.35,14.94-22.74,19.72-5.3-.57-10.86-.87-16.59-.88-15.19-.04-31.6,1.89-47.62,5.94-28.9,7.3-56.49,21.49-73.22,43.39-3.11,4.07-5.85,8.42-8.15,13.03-3.5,6.73-6.66,13.76-9.49,21.03-4.73,12.18-8.51,25.03-11.31,38.26-5.36,25.28-7.14,51.92-5.2,77.77,2.49,33.12,11.1,64.96,26.16,91.09,13.21,22.92,31.39,41.44,54.75,52.54,10.85,5.15,22.81,8.71,35.92,10.36,10.53,1.33,21.79,1.43,33.81.16,7.3-.78,14.87-2.06,22.72-3.89Z"/>
    <path class="cls-16" d="M529.41,804.99c12.42,39.63,41.83,68.15,69.96,89.09,29.13,21.69,97.66,38.56,148.34,33.74,20.73-1.97,114.54-16.9,135.19-21.85,33.45-8.02,92.41-12.11,117.96-17.41,26.81-5.56,87.8-14.28,119.49-20.27,48.64-5.56,44.43-11.58,136.34-23.43,81.56-10.52,128.17-35.06,178.47-28.52,49.6,6.45,65.54,23.97,99,32.5,5.4,1.38,11.26,2.52,17.79,3.34,9.57-.48,18.2-21.94,21.06-53.27,1.53-16.79,13.13-10.52,20.44-11.1,4.52-.36,7.4-4.83,9.17-11.63,6.09-23.41-.94-74.44.86-80.47,8.07-27-6.72-65.83-3.57-93.82,2.18-19.37,4.01-10.38,5.42-29.87,1.07-14.77,2.11-29.53,3.39-44.21.99-11.26-10.22-22.77-8.81-33.91,1.88-14.92-6.23-26.39-3.06-40.98-.72-3.24-.66-7.73-.86-12.65-.32-7.59-1.28-16.2-6.82-22.87-2.89-3.48-1.29-8.39-8.05-9.88-73.02-11.21-145.75-13.37-215.06-13.44-50.63-.05-100.51,10.21-154.2,5.96,1.36.61-64.88-2.45-103.65,6.17-18.79,4.18-81.01,13.39-93.62,13.96-21.74.97-67.28,3.02-96.41.35-27.65-2.53-101.08,6.78-151.63,35.98-17.94,10.36-30.61,15.71-47.16,28.06-21.85,16.29-42.79,35.61-61.53,54.38-27.09,27.13-50.49,41.36-67.3,73.84-4.45,8.6-40.17,39.44-57.77,66.92-1.97,3.08-3.72,6.12-5.17,9.08-15.6,31.89-11.3,78.12,1.79,116.21Z"/>
  </g>
  <g id="Brain">
    <g id="Left_Internal_Jugular_Vein">
      <path class="cls-21" d="M711.01,589.4c-25.02,4.82-50.32,7.79-75.77,8.89-25.36.79-50.41.48-75.7,1.27-13.53.28-43.84,1.64-56.92,1.02-8-.32-16-.66-23.94-1.4-4.32-.46-9.71-1.39-13.82-1.28-4.84.09-9.38,2.04-12.12,6.08-.86,1.11-2.79,2.2-4.13,3.47-3.84,3.85-8.56,6.55-13.69,8.15-6.75,2.06-13.64,1.92-20.15,1.38l.8-6.75c8.78,1.35,17.69.62,24.51-5.08,1.07-.88,2.02-1.79,2.79-2.8.77-1.07.57-2.64,1.47-4.14,4.18-6.76,13.41-9.49,20.95-8.32,6.56.82,12.42,2.57,18.77,3.04,25.11,2.15,50.09-.17,75.23-1.15,25.11-1.15,50.51-1.22,75.54-2.37,24.92-1.44,49.79-4.74,74.22-9.81l1.97,9.8h0Z"/>
    </g>
    <path class="cls-45" d="M331.02,577.98c3.12,7.09,10.5,13.6,18.66,17.13,6.83,2.95,14.21,3.81,20.12,1.18,3.55-1.58,6.57-4.43,8.61-8.84,1.77-5.77,3.52-11.68,4.74-17.66,1.66-8.17,2.33-16.48.72-24.76-.4-2.48-1.21-5.09-2.42-7.45-2.39-4.65-6.35-8.37-11.82-8.43-.68-4.3-2.48-7.39-5.01-9.5-4.2-3.51-10.41-4.32-16.8-3.52-7.64.96-15.55,4.23-20.61,7.95-2.51,3.79-4.01,7.99-4.73,12.41-1.45,8.83.2,18.53,3.03,27.48,1.58,5,3.53,9.77,5.51,14.03Z"/>
    <path class="cls-45" d="M298.08,538.36c5.89,17.14,26.15,34.3,43.08,28.82,3.95-1.28,7.72-3.79,11.09-7.83,9.38-12.15-3.34-23.86-3.92-36.43-3.64-15.38-7.06-33.88-16.46-47.3-2.84-4.05-6.22-7.64-10.31-10.54-3.47-1.61-7.57-3.14-11.94-4.36-16.92-4.71-38.11-4.77-44.47,12.91l3.61.65c-.87-.27-1.75-.54-2.62-.81,1.66,2.88,3.32,5.76,4.97,8.66,10.2,17.92,20.01,36.26,26.98,56.22Z"/>
    <path class="cls-31" d="M383.51,690.55c6.14.31,12.42.61,18.33-1.08,5.91-1.7,11.5-5.79,13.3-11.67,1.76-5.71-.25-12.12,1.75-17.75,2.03-5.72,7.76-9.45,10.06-15.07,1.64-4.02,1.34-8.59.29-12.8-2.15-8.66-7.44-16.56-14.79-21.61-7.36-5.05-16.74-7.15-25.5-5.43-4.07.8-7.96,2.38-12.04,3.07-3,.51-6.09.53-9.03,1.31-5.18,1.37-9.72,5.27-11.53,10.32-3.41,9.57,3.09,19.57,4.82,29.58,1.77,10.26-1.28,21.95,4.75,30.44,3.88,5.46,10.56,8.04,16.85,10.34"/>
    <g id="Superior_dural_venous_sinus">
      <path class="cls-21" d="M297.83,463.8c-26.62-2.14-53.3,9.47-69.53,30.68-9.15,11.71-15.73,25.61-19.11,40.1-2.23,11.39-2.38,23.24-1.09,34.69.19,1.65-.98,3.14-2.63,3.33-1.65.19-3.14-.99-3.33-2.64-.79-6.93-1.01-14.01-.63-20.9,1.3-30.89,19.23-63.09,45.96-79.06,15.13-9.13,33.19-12.97,50.74-11.69,3.57.34,3.28,5.61-.37,5.47h0Z"/>
    </g>
    <path class="cls-37" d="M224.17,690.66c35.76,28.85,4.65,31.65,51.15,56.53,2.02,1.08,3.96,1.81,5.8,2.38,13.08,6.99,14.91,2.93,29.9,5.01,7.34,1.02,17.63-2.88,24.99-2.26,3.7.31,6.88.24,10.51.53,4.76-.32,12.4-2.09,19.59-4.92,14.41-5.68,26.34-26.13,10.41-37.29-10.53-1.06-17.57-4.35-22.34-9.27-8.88-9.15-9.87-23.94-10.82-40.42-3.55-19.96-18.03-38.68-13.66-58.47,5.37-12.8,8.84-26.16,10.18-39.6.67-6.81.8-13.64.34-20.43-.99-14.66-4.71-29.1-11.49-42.7-1.69-3.39-3.56-6.72-5.64-9.99-3.07-11.73-8.82-19.22-16.17-23.39-5.08-2.89-10.93-4.19-17.19-4.21-3.53-.01-7.18.38-10.9,1.13-5.72,1.15-11.61,3.13-17.42,5.74-22.96,10.33-44.77,30.57-51.16,48.52-.55,2.79-1.19,5.61-1.87,8.43-2.72,11.29-6.14,22.83-7.57,34.25-.46,3.68-.71,7.35-.67,11,.45,1.61.79,3.22,1.01,4.82.71,5.13.21,10.19-1.78,15.22-4.87,18.43,2.6,37.58,9.14,55.48,5.38,13.1.21,21.68,3.62,30.7,1.57,4.16,4.96,8.4,12.05,13.23Z"/>
    <path class="cls-3" d="M375.62,712.95c5.86.74,11.69,1.48,17.55.24s10.73-4.29,13.87-8.84c1.38-2,2.47-4.29,3.26-6.87,1.28-4.18,1.77-9.1,1.44-14.69,6.39-6.43,9.61-13.26,10.37-19.87.74-6.36-.8-12.51-3.97-17.85-1.6-2.7-3.61-5.19-5.96-7.41-1-.94-2.06-1.84-3.18-2.67-6.69-5.02-15.32-7.99-24.46-7.63-4.06.16-8.21.97-12.35,2.56-.82.31-1.63.65-2.45,1.03-10.11-7.78-16.95-15.03-20.64-13.44-2.94,1.27-3.87,8.16-2.85,24.88.17,1.86.31,3.81.44,5.83.3,4.74.54,9.88.94,15.12.8,10.37,2.23,21.15,6.1,30.11,4.01,9.29,10.64,16.62,21.87,19.49Z"/>
    <path class="cls-29" d="M348.89,635.47c4.37,10.82,13.97,5.09,23.5,2.27,2.59-.77,5.17-1.32,7.64-1.26,1.5.03,1.45-.29,4.04-.23,3.67-7.71,13.59-.8,21.02-2.65,10.64-2.94,7.45.98,10.84-2.25,3.86-3.68,5.23-9.38,4.77-21.85-.45-1.41-.81-2.72-2-3.46-4.16-2.59,2.46.21-2.22-1.93-7.4-3.39-12.74-11.73-20.88-11.94-6.35-.52-11.58-4.65-17.17-8.22-1.01-.64-2.02-1.27-3.06-1.85-3.82-2.14-7.92-3.71-12.73-3.48-15.49-3.63-23.24-1.1-26.35,4.75-3.04,5.73-1.62,14.64,1.37,24.05s7.97,20.2,11.23,28.07Z"/>
    <path class="cls-34" d="M293.72,709.87c6.35,12.05,24.23,23.71,40.79,26.95,8,1.56,15.69,1.17,21.63-2.1,5.79-3.18,9.92-9.08,11.04-18.55-2.44-6.66-3.63-13.66-5.03-20.58-1.42-6.99-3.05-13.9-6.4-20.28-8.05-14.11-9.05-28.96-5.59-43.33,1.65-6.83,4.3-13.55,7.69-20.03,3.54-11.79,1.28-24.11-2.6-36.03-1.55-4.77-3.36-9.47-5.17-14.05-3.48-9.35-12.41-9.6-21.49-7.95-5.71,1.04-11.49,2.83-16.01,3.59-3.33,1.03-7.06,2.87-10.91,5.31-17.35,11.02-36.86,34.29-31.09,50.77,1.08,3.19.65,6.39-.23,9.62-1.82,6.64-5.57,13.42-2.06,20.57,3.63,6.58.52,12.81-.63,19.41-.04.22-.07.44-.11.66,1.29,5.77,1.32,11.2-.07,16.97.21,11.11,11.67,13.36,19.43,18.89,3.39,2.42,6.08,5.47,6.8,10.17Z"/>
    <path id="Brainstem_cut" class="cls-47" d="M413.29,609.75c-3.14,1.47-2.2,10.33-1.84,13.96.47,4.77.81,7.29,3.28,8.37,2.32,1.01,5.45-6.25,6.12-9.92,1.56-8.58.46-11.28.09-12.73-.52-2.03-.54-4-2.61-4.75s-2.7,3.98-5.04,5.08Z"/>
    <g id="Cerebral_arteries_from_MCA">
      <path class="cls-4" d="M271.44,707.07c.47,2.58-.82,5.27-3.51,5.85-2.11.51-4.29,1.19-5.22,3.31-.64,1.27-.88,2.74-.97,4.21l-1.07-.06c.11-1.56.36-3.16,1.1-4.63.7-1.48,2.1-2.68,3.65-3.18,3.37-.9,5.48-1.41,5.03-5.38,0,0,.99-.13.99-.13h0Z"/>
      <path class="cls-4" d="M267.19,675.65c-2.54,8.14-2.42,17.05,2.17,24.41,2.3,3.83,4.75,7.91,6.43,12.12,1.77,4.25,3.11,8.67,4.01,13.17l-2.18.5c-1.67-6.43-4.21-12.61-7.7-18.24-2.39-3.88-5.4-7.54-7.01-11.97-.86-2.27-1.44-4.65-1.72-7.05-.58-4.82-.07-9.67,1.05-14.27l4.95,1.33h0Z"/>
      <path class="cls-4" d="M340.87,608.22c-5.9,1.05-13.41,1.04-17.13-4.78-1.54-2.5-1.87-6.03-2.51-8.76-.59-2.78-1.31-5.5-2.21-8.19-3.92-12.91-8.24-18.3-21.43-22.27,0,0,1.33-4.31,1.33-4.31,8.82,2.79,17.21,8.12,20.53,17.18,2.16,5.59,3.78,11.16,4.84,16.99,1.01,5.94,1.08,10.36,8.02,11.86,2.61.55,5.43.39,8.2.01l.37,2.26h0Z"/>
      <path class="cls-4" d="M321.3,673.35c-7.86-3.63-16.56-9.46-18.14-18.69-.92-4.38.82-9.14,1.25-13.22.24-4.01-2.43-6.15-6.5-6.69-7.67-1.13-13.42-5.96-15.21-13.68-1.73-6.27-3.52-12.29-6.39-18.11-1.82-3.88-3.86-7.69-5.9-11.51l3.91-2.16c3.23,5.78,6.4,11.63,8.8,17.86,1.54,4.17,2.68,8.48,3.82,12.7.88,3.79,2.71,7.23,6.21,9.16,2.57,1.61,6,1.78,9.02,2.98,3.81,1.35,6.2,5.78,5.63,9.72-.29,2.47-1.01,4.54-1.47,6.57-1.69,6.15.49,12.23,5.01,16.77,2.96,3.11,6.52,5.63,10.18,7.88,0,0-.22.42-.22.42h0Z"/>
      <path class="cls-4" d="M303.61,485.4c12.56,6.75,17.48,16.25,19.53,29.98,1.09,4.39.24,9.04,1.89,13.25,2.37,5.61,6.19,10.79,7.45,16.92.28,1.13.76,3.28,1.06,4.33,0,0-3.79,1.11-3.79,1.11-.54-2.25-.86-4.56-1.43-6.75-1.31-5.13-4.37-9.57-6.15-14.59-1.17-2.91-.92-6.42-1.04-9.44-.31-4.45-1.03-9.01-2.04-13.33-1.99-8.87-8.16-16.06-15.99-20.59,0,0,.51-.9.51-.9h0Z"/>
      <path class="cls-4" d="M243.8,515.35c10.28.48,18.66,5.12,22.77,14.82,1.9,4.24,4.18,7.91,8.51,9.52,2.03.88,4.64.86,6.83,1.86,5.56,2.67,8.06,8.81,9.55,14.4.79,3.24,1.18,6.37,1.3,9.71l-4.18-.02c.03-3.26-.24-6.73-1.01-9.91-1.22-4.92-3.39-10.82-8.84-12.17-1.41-.35-3.15-.69-4.69-1.42-3.08-1.36-5.74-3.83-7.28-6.79-2.18-4.1-3.4-8.73-6.66-12.05-4.13-4.56-10.34-6.6-16.36-7.23l.06-.7h0Z"/>
      <path class="cls-4" d="M270.38,615.98c-8.59.97-17.07,4.41-23.23,10.57-3.3,3.32-6.15,7.86-11,9.22-.83.25-1.62.43-2.48.55-2.44.4-5.04.09-7.38-.47-4.18-1.01-8.64-3.21-12.74-1.73-2.62.92-4.83,2.93-6.36,5.4l-1.51-.89c2.25-4.26,6.99-7.71,12.05-7.35,5.59.31,10.85,3.37,16.42,1.74,4.83-1.26,6.77-5.45,10.2-9.13,2.16-2.38,4.68-4.5,7.38-6.24,5.4-3.51,11.6-5.75,17.94-6.76l.71,5.08h0Z"/>
    </g>
    <g id="Superior_cerebral_veins">
      <path class="cls-6" d="M205.02,636.67c2.02-3.06,3.66-5.36,7.53-5.38,4.26-.02,5.44,4.44,9.64,5.33,6.58,1.4,11.93-7.8,20.92-14.77,5.34-4.14,15.3-9.56,28.58-11.52"/>
      <path class="cls-21" d="M205.51,545.51c7.45,7.07,17.35,10.75,27.58,9.9,3.39-.23,6.89-.87,10.6-1.14,7.47-.6,15.05.87,21.85,3.68,6.86,2.78,13.06,6.79,18.78,11.25,1,.78,1.17,2.21.4,3.21-.78,1-2.23,1.17-3.23.38-5.44-4.24-11.29-8.03-17.67-10.61-6.31-2.6-13.08-3.9-19.81-3.36-6.98.67-14.69,2.15-21.83.43-7.31-1.33-14.33-5.34-19.67-10.32-2.18-2.02.68-5.33,2.99-3.4h0Z"/>
      <path class="cls-21" d="M210.57,661.33c7.83-3.09,17.15-2.08,23.89,3.03,6.51,4.41,14.74-1.06,20.41-4.74,4.29-2.97,8.31-6.4,12.18-9.98.82-.77,2.12-.72,2.88.11.78.84.71,2.17-.16,2.92-8,6.7-21.7,18.35-32.82,15.98-3.93-1.09-6.9-4.63-10.68-5.68-4.78-1.55-10.18-1.44-15.02.24-1.2.41-1.91-1.39-.69-1.88h0Z"/>
      <path class="cls-21" d="M240.32,704.18c5.91,1.51,12.47,1.26,18.03-1.27,4.12-1.85,7.64-5.04,10.4-8.63.91-1.21,1.78-2.51,2.35-3.75,1.11-2.25,4.47-.71,3.46,1.61-7.17,12.59-20.93,18.31-34.81,13.95-1.22-.4-.7-2.24.56-1.92h0Z"/>
      <path class="cls-21" d="M314.1,527.71c5.77,4.23,9.99,10.57,12.19,17.4.75,2.3,1.4,4.59,1.66,7.19l-3.77.17c-.12-4.26-1.39-8.87-3.06-12.85-1.77-4.1-4.47-7.84-7.86-10.89l.84-1.03h0Z"/>
      <path class="cls-21" d="M332.27,515.3c1.86,4.73,3.31,9.65,4.32,14.68.89,5.16,2.29,9.88,2.57,15.24,0,0-3.92-.06-3.92-.06.21-4.76-.75-9.97-1.1-14.81-.48-4.96-1.39-9.9-2.74-14.75l.87-.29h0Z"/>
    </g>
    <g id="Superficial_middle_cerebral_vein">
      <g id="Superficial_middle_cerebral_vein-2">
        <path class="cls-21" d="M363.16,730.79c-16.93,11.59-39.3,9.26-54.47-4.19-4.88-4.19-7.35-10.33-11.68-14.73-4.21-4.41-9.31-7.36-14.74-10.35-5.71-3.32-10.28-7.78-14.58-12.86-3.2-3.97-5.4-9.41-4.6-14.71.49-3.37,2.27-6.18,3.3-9.16,1.35-3.95,1.49-8.39.3-12.38-.91-2.89-2.71-5.67-3.44-8.82-.83-3.42-.91-6.78-.33-10.25.57-3.29,2.13-6.24,3.3-9.21,1.12-2.77,1.97-5.65,2.61-8.56,1.57-6.23.46-11.59.12-18.1-.02-3.41.59-6.84,1.76-9.94.73-2.27,1.93-4.72,3.15-6.77,6.87-11.43,19.83-20.88,32.69-24.06,7.59-1.7,14.91-3.14,21.74-6.85,0,0,2-1.05,2-1.05,1.97-1.08,3.04-2.41,4.74-4.24,1.53-1.81,6.58-4.7,7.47-1.07.14,1.1-.64,2.1-1.73,2.24-1.11.18-1.81.62-2.76,1.65-1.4,1.65-3.44,3.94-5.61,5.11,0,0-2.11,1.17-2.11,1.17-4.24,2.3-8.83,4.09-13.49,5.3-6,1.54-11.96,2.47-17.44,5.18-8.51,4.38-16.54,10.78-21.46,19-2.55,4.27-4.33,9.32-4.29,14.28.02,2.83.6,5.93.69,9.27.11,3.32-.25,6.66-.95,9.84-.97,4.68-2.76,9.31-4.67,13.62-1.71,3.9-1.96,8.23-1,12.32,1.29,4.45,4.23,8.78,4.28,13.69.22,3.4-.16,6.89-1.3,10.11-.98,2.91-2.66,5.51-3.12,8.36-.98,7.38,4.84,13.04,9.9,17.79,4.42,4.45,10.03,6.59,15.23,10.16,2.65,1.84,5.23,3.88,7.52,6.28,4.48,4.49,6.82,10.47,11.43,14.56,4.4,3.93,9.74,6.92,15.33,8.78,11.33,3.85,24.1,1.92,34.01-4.73,2.2-1.41,4.38,1.82,2.21,3.34h0Z"/>
      </g>
      <path class="cls-21" d="M335.34,599.35c-4.39-4.5-7.93-10.64-7.79-17.11.08-2.17.56-4.27.66-6.3.24-8.75-8.62-13.75-15.88-16.37-1.25-.45-.56-2.36.71-1.87,7.65,2.99,16.99,8.94,16.33,18.32-.19,2.19-.74,4.22-.88,6.28-.33,6.28,2.92,12.28,7.06,16.84.14.13-.08.37-.23.22h0Z"/>
      <path class="cls-7" d="M266.56,634.91c12.77,4.9,17.64,11.12,19.69,16,1.92,4.57,1.07,7.24,4.51,14.77,2.86,6.26,4.73,7.21,5.95,12.31.95,3.99.69,7.09.21,12.92-.31,3.66-.93,8.35-2.26,13.74"/>
      <path class="cls-21" d="M294.05,617.32c-2.47-11.91-9.55-22.67-19.47-29.63-1.05-.77.07-2.38,1.16-1.63,9.86,7.58,16.69,18.94,18.65,31.19.03.21-.3.29-.34.06h0Z"/>
    </g>
    <g id="Cerebellar_vein">
      <path class="cls-21" d="M363.86,660.79c10.02,4.74,14.26,17.07,9.62,27.09,0,0-1.8-.87-1.8-.87,4.83-9.21,1.15-20.93-8.02-25.83,0,0,.2-.38.2-.38h0Z"/>
      <path class="cls-21" d="M403.1,694.3c-7.36-5.1-17.45-4.16-24.58.88,0,0-1.08-1.68-1.08-1.68,7.79-4.85,18.48-5.33,25.89.47,0,0-.23.32-.23.32h0Z"/>
      <path class="cls-21" d="M396.46,639.16c4.86,4.45,7.34,11.36,6.6,17.94,0,0-1.97-.35-1.97-.35,1.23-6.12-.56-12.77-4.79-17.43,0,0,.16-.16.16-.16h0Z"/>
      <path class="cls-21" d="M416.13,655.76c-4.71,2.79-8.51,6.91-10.88,11.67l-1.74-.99c3.06-4.79,7.48-8.6,12.5-10.9l.12.23h0Z"/>
    </g>
  </g>
  <g id="Heart_blood_vessels">
    <g class="cls-19">
      <g id="Left_1st_rib">
        <path class="cls-48" d="M698.86,709.13c.63.82,1.37,1.36,2.2,1.42,3.43.26,6.34-2.74,7.55-5.95,1.61-4.27,1.43-8.95,3.14-13.21,1.6-3.98,4.06-7.54,6.04-11.35,5.86-11.3,6.86-25.52,14.29-35.83.61-.84.78-1.91.96-2.93,3.91-22.53,17.16-42.17,25.73-63.39,1.73-4.29,3.28-8.65,4.51-13.11.35-1.26.55-2.87-.36-3.71-.88-.81-2.19-.45-3.19-.11-1.46.49-2.93.98-4.39,1.47-.92.31-1.87.64-2.62,1.24-.84.67-1.26,1.67-1.65,2.65-2.54,6.36-5.07,12.72-7.61,19.09-1.16,2.91-2.32,5.82-3.48,8.73s-2.28,5.73-3.43,8.64c-4.05,10.17-8.25,20.6-12.73,30.33-7.09,15.4-14.18,30.79-21.27,46.19-3.15,6.84-6.36,13.96-6.31,21.48.01,2.19.96,6.23,2.62,8.38Z"/>
        <path class="cls-17" d="M752.66,565.27l.02-2.24c.83.42,1.72.65,2.62.73,1.62.13,3.31-.24,4.84-.97,3.16-1.49,5.29-4.38,6.98-7.34,1.42-2.5,2.69-5.09,4-7.65,1.85-3.63,3.65-7.28,5.29-11,1.05-2.38,2.04-4.87,2.71-7.41.9-3.42,1.22-6.92.31-10.32-.34-1.27-.88-2.54-1.84-3.46-2.56-2.43-6.95-1.74-10.11-1.3-1.79.25-3.57.64-5.12,1.42s-2.78,1.86-3.64,3.54c-.5.97-.86,2.03-1.18,3.08-1.25,3.99-2.22,8.06-2.95,12.17-1.26,7.07-1.84,14.28-1.97,21.5-.06,3.08-.03,6.17.06,9.24Z"/>
      </g>
    </g>
    <path id="Aorta" class="cls-10" d="M814.06,581.59s-51.1-4.31-49.38,38.77c1.72,43.08,38.11,62.41,75,63.21,36.88.79,92.56-3.51,124.41-8.44s122.64-19.14,157.25-26.49c34.61-7.36,147.02-33,178.2-38.02,31.18-5.03,144.41-17.13,176.41-17.23s128.62-4.41,128.62-4.41"/>
    <path id="Inferior_vena_cava" class="cls-9" d="M908.55,599.7c13.22.23,33.47,1.5,57.44,6.97,31.91,7.29,39.13,14.91,73.85,24.21,36.8,9.85,65.69,11.21,73.03,11.49,23.75.89,40.22-1.37,76.72-6.97,99.18-15.24,101.7-16.57,114.87-18.46,47.22-6.76,83.79-6.08,156.92-4.72,40.43.75,74.54,2.9,134.46,9.05"/>
    <path id="Posterior_part_of_heart" class="cls-24" d="M820.48,627.41c6.48,2.61,5.7,12.48,10.6,17.47,3.65,3.73,9.52,3.85,14.73,3.72,6.34-.15,12.69-.3,19.03-.45,3.25-.08,6.53-.16,9.71-.87,7.73-1.74,14.23-7.16,18.88-13.58s7.67-13.85,10.65-21.19"/>
    <g id="Internal_carotid_artery_Right">
      <path class="cls-4" d="M353.86,572.44c-.42.17-.43.22-.43.21.02-.01.1-.08.18-.17.13-.12.29-.33.41-.47.03-.03.09-.13,0,0-.17.28-.09.16-.07.08.18-.44.27-1,.38-1.5.5-4.05,2.79-7.92,6.47-9.89,3.71-2.11,8.81-1.94,11.76,1.58,1.7,1.97,1.85,5.14,1.38,7.31-.27,2.43.11,4.86.58,7.36,1.1,5.04,2.88,10.27,6.01,14.28,2.15,2.94,4.62,3.22,7.95,4.11,7.22,1.86,12.73,9.15,13.41,16.34.29,2.15.45,3.89.85,4.88,1.51,3.96,6.22,2.81,9.65,1.65,2.98-1,6.28-2.7,9.29-3.92.45-.18,1.43-.51,1.85-.61,3.7-.91,7.01-2.96,10.71-4.12,9.23-3.06,19.12-2.19,28.34-.24,1.45.3,3.14.63,4.58,1.06,18.18,5.09,36.32,10.94,54.8,14.45,20.86,4.02,42.11,5.52,63.33,4.85,7.83-.19,15.45-.98,23.34-1.42,7.99-.39,15.91-.5,23.86-.39,15.93.26,31.81,1.51,47.64,3.48,4.07.5,6.97,4.21,6.47,8.28-.51,4.34-4.76,7.32-9.01,6.34-7.49-1.67-15.04-3.09-22.65-4.16-19.08-2.77-38.31-3.74-57.57-2.75-25.74,1.19-51.55-1.03-76.96-5.14-17.58-3.14-34.45-8.76-51.5-13.66-1.33-.39-3.55-1.05-4.84-1.41-1.96-.5-4.11-.92-6.08-1.3-8.84-1.8-17.99-1.72-26.05,2.41-2.2,1.04-4.77,1.74-7.12,2.46-3.18,1.29-6.28,2.87-9.65,3.98-7.84,2.92-17.06,1.99-20.42-6.91-.85-2.18-.92-4.48-1.24-6.63-.38-3.23-1.55-5.54-3.85-7.59-1.76-1.64-3.82-1.98-6.29-2.65-6.06-1.37-10.44-6.72-12.84-11.98-3.38-7.38-5.52-15.58-4.36-23.66,0,0,.05.14.16.28.11.13.17.15.13.13-.06-.06-.45-.15-.72-.13-1.77.24-3.08,1.84-3.49,3.54-.38,2-.61,3.51-1.68,5.4-.76,1.06-1.35,1.75-2.38,2.57-2.02,1.83-5.57,1.58-6.65-1.35-.74-2.01.3-4.24,2.31-4.97h0Z"/>
    </g>
    <g id="Internal_carotid_artery_Left">
      <path class="cls-4" d="M759.13,622.61c-26.63-3.87-55.46-8.39-82.07-10.25-35.77-2.29-73.33-2.69-108.89-7.38-16.77-2.43-34.17-5.42-50.65-9.13-5.4-1.2-10.89-1.82-16.46-2.55-10.89-1.33-22.16-2.81-33.09-2.59-9.03.87-18.35,1.84-27.43,2.16-3.63.03-7.12.54-10.84.03-4.33-.52-8.64-3.47-10.74-7.28-1.74-3.65-4.51-4.66-8.37-5.27-2.91-.37-6.48-.45-9.59-.4-1.84.02-3.92.37-6.04-.13-6.23-1.77-9.13-9.05-8.34-14.97.11-1.34-.19-2.59-.84-3.74.26.39.13.18,0,.06-.93-.95-2.19-1.9-3.32-2.61-1.13-.68-2.19-1.21-3.36-1.4-2.07-.12-4.39.74-6.36,1.54-4.11,1.8-5.41,3.24-7.16,7.76-1.39,3.24-2.74,6.76-4.91,9.83-1.07,1.45-2.24,2.68-4.22,3.42,0,0-2.24-6.55-2.24-6.55-.11.05.01,0,.2-.18.19-.18.43-.45.67-.78,3.05-4.36,4.07-10.17,7.33-14.59,4.04-4.51,9.4-6.59,15.16-7.43,5.15-.43,9.73,2.72,13.27,6.09,2.55,2.57,3.2,7.11,2.7,10.62-.04,1.91,1.15,5.26,3.09,6.04,4.92.03,9.86-.37,14.96.35,3.98.52,8.36,2.05,11.31,5.3,1.11,1.22,1.8,2.63,2.27,3.4,1.89,3.13,4.56,4.05,8.41,3.92,11.11-.29,22.54-1.3,33.64-2.49,9.4-.34,18.71.7,27.99,1.72,7.25.91,15,1.78,22.22,3.19,8.25,1.93,16.59,3.63,24.94,5.17,4.25.75,15.75,2.98,19.99,3.57,15.58,2.08,31.47,2.34,47.21,2.72,9.06.16,18.15-.01,27.25.33,13.68.43,27.33,2.05,40.91,3.08,22.61,1.57,45.37,1.74,67.98.15,4.5-.34,8.94-.82,13.19-1.55l.24,20.85h0Z"/>
    </g>
    <path id="Brachiocephalic_trunk" class="cls-5" d="M760.39,635.73c-8.49-1.32-35.76-5.55-48.23-4.73-10.5.69-19.04,1.85-30,6.81-11.33,5.13-23.66,17.11-39.06,31.46"/>
    <g id="Right_internal_jugular_vein_and_SVC">
      <path class="cls-21" d="M811.62,622.76c-14.67-2.58-30.07-2.83-45.09-2.45-25.83.99-64.08,1.92-89.29,3.93-6.16.69-13.09,1.12-18.98.89-12.07-.31-23.94-.9-35.93-.43-7.92.27-15.9.74-23.77,1.59-7.86.98-16.38,2.19-24.38,2.39-18.17.65-36.02,3.66-54.31,3.87-17.62-.28-35.75-1.15-53.34-1.07-4.41-.19-8.75-.29-13.05-.05-5.72.28-10.41,1.41-15.59,3.39-1.68.73-4.1-.17-5.91.6l.44-.21c-1.4.65-1.71.66-2.9,1.03-4.46,1.2-8.92,3.01-12.34,6.14-3.96,3.51-6.6,8.78-8.43,13.71-2.28,6.39-2.14,13.61-5.34,20-4.2,9.73-12.8,12.29-20.91,16.83-3.9,2.36-7.54,5.4-9.56,9.49-1.55,4.15-1.52,9.89-1.1,14.66.44,5.59,1.45,11.26,2.6,16.81.56,2.3,1.32,6.25,1.95,8.47,1.74,7.37-8.67,10.68-11.49,3.58-2.21-6.02-3.74-12-4.93-18.29-1.71-10.62-3.31-23.11,2.85-33.23,3.62-5.26,9.27-9.16,15.22-11.26,7.12-2.59,15.5-2.82,18.79-10.29,3.05-5.77,2.93-12.73,5.2-19.07,4.36-13.09,11.38-21.68,24.7-26.12,0,0,.97-.37.97-.37.25-.09.57-.25.36-.17,2.17-.7,3.52-3.23,5.8-3.91,6.2-2.19,13.58-2.94,19.92-2.1,4.6.48,9.1,1.44,13.57,2.11,11.47,1.18,23.01,1.65,34.53,2,11.95.42,23.79.46,35.69-1.02,11.64-1.19,24.52-2.47,36.15-3.24,3.96-.3,7.84-.71,11.65-1.38,11.74-2.38,23.92-4.87,35.86-6.59,15.34-2.64,32.62-3.17,47.4-5.92,19.75-4.6,40.32-6.73,60.46-8.85,28.91-2.57,58.39-6.65,87.34-1.05,16.55,3.84,12.33,27.91-4.81,25.55h0Z"/>
    </g>
    <path id="Left_Brachiocephalic_vein" class="cls-8" d="M747.56,605.42c-8.43-3.35-35.96-14.75-34.46-23.08.4-2.2,2.79-4.01,5.23-5.85,6.41-4.83,13.41-4.99,16-4.92"/>
    <path id="Heart" class="cls-18" d="M944.8,474.22c-19.45-3.01-47.75,1.7-65.03,6.97-7.38,2.26-45.16,17.25-62.88,44.5-.31.48-16.85,32.13-18.17,49.66-.03.4-.08.8-.14,1.19-1.63,10.16-1.53,20.56,1.23,30.24,1.69,5.92,4.38,11.56,8.28,16.7,2.66,3.87,6.25,7.84,10.94,8,28.03.42,58.49,2.27,84.7-7.74,6.02-2.3,10.21-7.79,10.72-14.22.33-4.21.27-8.55.5-11.28.73-8.72,8.07-17.27,16.8-16.66,3.21.64,6.42.22,8.57-2.51,6.42-6.61,13.47-8.39,16.58-17.06,10.11-28.15,29.93-50.63,8.62-75.69-2.88-3.39-9.44-10.36-20.72-12.1Z"/>
  </g>
  <g id="Bone">
    <g class="cls-11">
      <g id="Vertebra">
        <path class="cls-20" d="M668.1,747.3c.37,1.56.62,3.15,1.25,4.64.6,1.43,1.54,2.81,2.65,4.1,1.95,2.26,4.35,4.41,7.05,5.75.62.31,1.23.61,1.81,1.02.74.52,1.44,1.2,2.19,1.73.85.59,1.77.98,2.92.72.85-1.2,1.67-2.79,1.45-4.27-.25-1.68-1.3-3.29-2.12-4.76-4.96-8.81-7-17.48-8.78-26.79-.58-3.03-1.13-6.12-1.74-9.31,1.79-4.49,4.31-8.24,7.07-12.07.6-.83,1.21-1.67,1.83-2.52,3.84-5.27,3.8-12.57,1.89-18.95-.66-.63-1.39-1.2-2.17-1.69-1.14-.71-2.38-1.27-3.66-1.65-2.41-.71-4.97-.78-7.25-.04-2.58.84-4.66,2.72-6.64,4.46-2.06,1.8-4.11,3.61-6.17,5.41-2.92,2.56-5.7,4.79-7.58,8.09-2.35,4.15-2.87,9.2-3.36,13.89,1.29,1.23,2.52,2.51,3.69,3.84,5.37,6.06,9.6,13.08,12.86,20.44.59,1.34,1.16,2.7,1.65,4.08.46,1.28.86,2.58,1.17,3.89Z"/>
        <path class="cls-26" d="M671.69,709.47c.53,1.25,2.13,1.8,5.22,1.72,2.77-.08,8.99-8.05,10.82-10.2,2.4-3.82,4.63-8.49,6.33-12.63,1.8-4.39,3.25-11.6,2.56-14.66-.82-3.62-2.55-3.12-6.49-1.19-1.77.86-7.67,4.02-13.41,14.51-2.07,3.77-3.85,7.72-4.95,11.91-.77,2.9-.53,8.52-.06,10.55Z"/>
        <path class="cls-40" d="M623.15,737.54c.82.7,1.88.95,3.01,1.08,2.03.22,4.3,0,5.89,1.08.77.52,1.37,1.34,2.32,1.49,1.1.18,2.32-.63,3.02-1.65.88-1.26,1.18-2.77,1.67-4.15,1.45-4.12,3.7-8.06,6.59-11.5,1.01-1.2,2.27-2.44,3.73-2.57,1.58-.14,2.98.16,4.35.65,1.53.54,2.98,1.24,4.56,1.69,2.82.8,5.84,1.11,8.9.93,1.21-.07,2.43-.22,3.64-.45.51-.1,1.02-.2,1.53-.33,1.32-1.59,1.24-4.67.18-6.11-.1-.13-.2-.26-.31-.38-1.08-1.19-2.71-1.81-4.37-2.13-1.04-.2-2.14-.31-3-.85-1.32-.84-1.81-2.58-1.64-4.26.18-1.77,1-3.42,1.74-5.09.58-1.3.82-2.86.72-4.39-.12-2.01-.8-3.96-1.96-5.21-.59-.63-1.39-1.13-2.3-1.49-2.85-1.12-6.84-.83-9.21,1.44-1.01.96-2.18,1.74-3.43,2.29-1.61.71-3.34,1.04-4.97.91-2.02-.16-3.85-.96-5.81-1.3-.72-.13-1.64-.32-2.4.02-2.19.98-.92,3.64-.08,4.74,1.21,1.59,2.84,2.83,4.11,4.37,1.44,1.75,2.44,4.19,1.53,6.57-.71,1.88-2.43,3.29-4.04,4.58-2.2,1.76-4.37,3.56-6.53,5.37-.95.8-1.89,1.6-2.82,2.41-2.48,2.13-5.24,4.61-5.82,7.87-.3,1.69.02,3.37,1.19,4.36Z"/>
        <path class="cls-39" d="M650.13,700.69c1.42,2.16,3.48,2.88,5.6,3.52,1.65.5,3.33.95,4.76,1.98,3.25,2.34,6.53,4,10.38,3.71,1.48-.11,3.21-.42,4.34-1.43.8-.71,1.21-1.73,1.52-2.78.11-.37.2-.74.29-1.1,1.93-7.55,4.88-14.81,8.75-21.51,2.09-3.62,4.57-7.2,8.19-9.29.48-.28,1-.67,1.31-1.11.42-.59.47-1.27-.42-1.89-1.48-1.02-3.27-1.44-4.98-1.94-.02,0-.03,0-.05-.01-5.63-1.65-10.96-4.43-15.56-8.14-.48-.38-.98-.79-1.51-1.1-2.71-1.58-4.9,1.05-6.45,2.9-.58.69-1.12,1.42-1.62,2.18-1.83,2.73-3.28,5.78-4.99,8.61-4.17,6.89-10.28,13.17-10.87,21.29-.08,1.04-.05,2.11.14,3.15s.56,2.07,1.15,2.97Z"/>
        <path class="cls-20" d="M702.6,768.05c.47,1.65.83,3.34,1.56,4.89.7,1.49,1.77,2.92,3.01,4.24,2.18,2.32,4.83,4.49,7.74,5.78.67.3,1.34.59,1.97.99.81.52,1.58,1.21,2.41,1.74.93.59,1.92.96,3.12.61.83-1.33,1.62-3.07,1.31-4.63-.35-1.78-1.54-3.45-2.49-4.98-5.7-9.16-8.31-18.32-10.68-28.18-.77-3.2-1.51-6.48-2.33-9.86,1.65-4.89,4.11-9.03,6.82-13.26.59-.92,1.19-1.85,1.8-2.79,3.77-5.83,3.35-13.63,1-20.36-.73-.64-1.53-1.21-2.38-1.69-1.24-.71-2.58-1.24-3.95-1.58-2.58-.63-5.28-.57-7.65.34-2.68,1.03-4.77,3.15-6.77,5.11-2.07,2.03-4.15,4.07-6.22,6.1-2.95,2.89-5.77,5.41-7.57,9.04-2.27,4.55-2.54,9.98-2.82,15.03,1.42,1.25,2.79,2.55,4.1,3.91,5.98,6.2,10.82,13.49,14.64,21.18.7,1.4,1.36,2.82,1.96,4.27.55,1.34,1.04,2.71,1.44,4.1Z"/>
        <path class="cls-26" d="M704.41,727.43c.62,1.31,2.35,1.82,5.6,1.57,2.92-.22,9.07-9.07,10.88-11.47,2.33-4.2,4.44-9.31,6.02-13.83,1.67-4.79,2.82-12.57,1.93-15.81-1.05-3.82-2.85-3.2-6.92-.94-1.82,1.01-7.88,4.69-13.4,16.21-1.98,4.14-3.65,8.46-4.6,12.98-.66,3.14-.11,9.14.49,11.28Z"/>
        <path class="cls-40" d="M654.65,759.95c.9.7,2.03.92,3.24.99,2.15.13,4.54-.22,6.27.85.84.52,1.51,1.36,2.53,1.48,1.17.14,2.41-.8,3.1-1.92.86-1.39,1.1-3.02,1.55-4.52,1.31-4.48,3.48-8.8,6.35-12.63,1-1.34,2.27-2.72,3.81-2.94,1.66-.23,3.15.02,4.62.47,1.65.5,3.21,1.17,4.9,1.57,3.02.71,6.22.89,9.44.53,1.27-.14,2.55-.36,3.82-.67.53-.13,1.06-.27,1.59-.43,1.31-1.76,1.06-5.06-.13-6.55-.11-.14-.22-.27-.35-.39-1.2-1.22-2.95-1.79-4.72-2.05-1.11-.16-2.27-.22-3.21-.76-1.44-.83-2.05-2.66-1.96-4.46.1-1.9.87-3.71,1.57-5.53.55-1.42.71-3.1.53-4.73-.23-2.14-1.05-4.19-2.34-5.46-.65-.64-1.52-1.14-2.51-1.48-3.07-1.05-7.26-.54-9.64,2.01-1.01,1.08-2.21,1.97-3.5,2.62-1.66.84-3.47,1.28-5.2,1.23-2.14-.06-4.11-.82-6.2-1.09-.77-.1-1.74-.25-2.53.15-2.26,1.16-.78,3.94.16,5.07,1.36,1.64,3.14,2.88,4.57,4.46,1.62,1.79,2.8,4.35,1.97,6.95-.65,2.05-2.39,3.64-4.02,5.11-2.23,2-4.43,4.03-6.61,6.08-.96.9-1.91,1.81-2.86,2.72-2.5,2.41-5.29,5.2-5.73,8.71-.23,1.82.2,3.6,1.48,4.6Z"/>
        <path class="cls-39" d="M681.19,719.16c1.61,2.23,3.83,2.9,6.1,3.47,1.76.45,3.56.84,5.13,1.87,3.55,2.33,7.1,3.94,11.16,3.42,1.56-.2,3.37-.62,4.51-1.75.81-.8,1.19-1.91,1.46-3.05.09-.4.17-.8.25-1.2,1.64-8.17,4.37-16.08,8.11-23.45,2.02-3.98,4.44-7.93,8.16-10.36.49-.32,1.02-.77,1.32-1.25.41-.65.43-1.38-.54-1.99-1.62-1.02-3.52-1.37-5.36-1.82-.02,0-.03,0-.05-.01-6.03-1.47-11.8-4.17-16.85-7.89-.52-.39-1.07-.79-1.65-1.1-2.95-1.55-5.12,1.38-6.66,3.44-.57.77-1.1,1.58-1.6,2.41-1.79,3.01-3.16,6.35-4.82,9.46-4.04,7.58-10.16,14.61-10.36,23.32-.03,1.12.06,2.26.32,3.36.26,1.12.7,2.18,1.37,3.11Z"/>
        <path class="cls-20" d="M742.33,784.76c.62,1.68,1.13,3.4,2.02,4.96.85,1.5,2.07,2.9,3.46,4.17,2.45,2.23,5.37,4.27,8.49,5.38.72.25,1.43.5,2.12.87.88.47,1.74,1.13,2.63,1.61,1.01.54,2.07.84,3.28.38.75-1.45,1.42-3.33.97-4.93-.51-1.82-1.88-3.47-2.99-4.98-6.65-9.06-10.11-18.38-13.37-28.44-1.06-3.27-2.1-6.62-3.22-10.07,1.31-5.23,3.52-9.73,5.97-14.36.53-1.01,1.08-2.02,1.63-3.05,3.43-6.37,2.35-14.46-.64-21.26-.81-.61-1.68-1.13-2.6-1.57-1.34-.63-2.77-1.08-4.22-1.32-2.72-.45-5.52-.16-7.9.98-2.69,1.29-4.68,3.67-6.59,5.87-1.98,2.29-3.96,4.57-5.94,6.86-2.82,3.25-5.53,6.11-7.1,10.02-1.97,4.92-1.81,10.59-1.69,15.86,1.57,1.18,3.1,2.43,4.56,3.74,6.7,5.96,12.31,13.15,16.9,20.83.84,1.4,1.64,2.83,2.38,4.28.68,1.35,1.3,2.73,1.83,4.15Z"/>
        <path class="cls-26" d="M740.86,742.36c.75,1.31,2.58,1.7,5.92,1.17,3-.47,8.64-10.18,10.32-12.82,2.07-4.56,3.83-10.05,5.09-14.88,1.33-5.12,1.88-13.31.7-16.6-1.4-3.89-3.22-3.09-7.24-.41-1.8,1.2-7.78,5.53-12.54,17.96-1.71,4.47-3.09,9.1-3.69,13.88-.42,3.32.64,9.52,1.43,11.7Z"/>
        <path class="cls-40" d="M692.01,780.26c.99.66,2.18.79,3.43.77,2.24-.04,4.68-.6,6.56.37.91.47,1.68,1.29,2.74,1.33,1.23.04,2.43-1.03,3.05-2.25.78-1.52.9-3.23,1.23-4.83.99-4.76,2.88-9.44,5.54-13.66.93-1.47,2.12-3.02,3.7-3.37,1.69-.38,3.27-.24,4.83.11,1.75.39,3.42.96,5.2,1.23,3.18.49,6.51.41,9.82-.22,1.31-.25,2.61-.59,3.9-1.01.54-.18,1.08-.37,1.61-.58,1.21-1.94.69-5.35-.67-6.8-.12-.13-.25-.26-.39-.38-1.34-1.17-3.21-1.62-5.06-1.74-1.16-.07-2.37-.04-3.38-.52-1.56-.74-2.34-2.6-2.4-4.48-.06-1.99.6-3.93,1.17-5.88.45-1.52.48-3.29.16-4.97-.42-2.21-1.43-4.28-2.87-5.49-.73-.62-1.67-1.06-2.72-1.33-3.26-.84-7.57.04-9.82,2.88-.96,1.21-2.13,2.23-3.4,3.01-1.65,1.01-3.49,1.62-5.29,1.71-2.22.11-4.32-.52-6.51-.63-.81-.04-1.83-.12-2.61.36-2.25,1.39-.48,4.16.58,5.26,1.55,1.59,3.49,2.73,5.1,4.27,1.82,1.73,3.25,4.29,2.61,7.07-.51,2.19-2.18,3.98-3.75,5.64-2.14,2.26-4.25,4.55-6.34,6.87-.92,1.02-1.83,2.04-2.73,3.06-2.39,2.71-5.05,5.84-5.21,9.53-.09,1.91.5,3.73,1.91,4.67Z"/>
        <path class="cls-39" d="M716.14,735.65c1.85,2.19,4.2,2.7,6.6,3.12,1.86.32,3.75.58,5.46,1.53,3.87,2.13,7.68,3.52,11.83,2.65,1.6-.33,3.44-.92,4.53-2.19.77-.9,1.08-2.08,1.26-3.29.06-.42.11-.85.16-1.27,1.02-8.63,3.2-17.09,6.47-25.06,1.76-4.3,3.95-8.61,7.59-11.44.48-.37.99-.88,1.27-1.41.37-.71.34-1.47-.72-2.03-1.76-.92-3.76-1.14-5.7-1.45-.02,0-.04,0-.05,0-6.36-1.03-12.56-3.37-18.09-6.83-.57-.36-1.17-.74-1.79-1.01-3.18-1.37-5.19,1.85-6.61,4.12-.53.85-1.01,1.73-1.46,2.64-1.61,3.28-2.75,6.86-4.21,10.23-3.56,8.22-9.32,16.03-8.81,25.11.07,1.16.25,2.35.6,3.47s.9,2.21,1.67,3.13Z"/>
        <path class="cls-20" d="M789.6,803.67c.77,1.64,1.43,3.33,2.47,4.83.99,1.44,2.36,2.75,3.89,3.91,2.7,2.05,5.86,3.86,9.16,4.72.76.2,1.51.39,2.25.7.94.4,1.88,1,2.84,1.41,1.08.46,2.2.68,3.41.12.66-1.52,1.2-3.46.61-5.04-.67-1.79-2.21-3.33-3.47-4.76-7.56-8.58-11.86-17.67-16.02-27.53-1.35-3.2-2.69-6.49-4.12-9.87.93-5.36,2.85-10.07,5.01-14.93.47-1.06.95-2.12,1.44-3.2,3.02-6.69,1.27-14.73-2.35-21.34-.88-.55-1.82-1-2.8-1.37-1.43-.53-2.93-.86-4.45-.98-2.84-.23-5.69.28-8.05,1.62-2.67,1.52-4.52,4.07-6.31,6.44-1.86,2.46-3.71,4.92-5.57,7.38-2.64,3.5-5.2,6.59-6.51,10.66-1.64,5.11-1.03,10.8-.47,16.1,1.71,1.06,3.38,2.19,4.99,3.39,7.37,5.45,13.71,12.23,19.05,19.59.97,1.34,1.92,2.71,2.79,4.11.81,1.3,1.56,2.64,2.21,4.03Z"/>
        <path class="cls-26" d="M779.83,754.11c.88,1.26,2.79,1.5,6.19.7,3.05-.72,8.09-10.95,9.6-13.73,1.77-4.76,3.15-10.42,4.06-15.38.97-5.25.88-13.54-.6-16.76-1.75-3.8-3.56-2.85-7.48.18-1.76,1.36-7.56,6.19-11.47,19.08-1.41,4.64-2.46,9.4-2.7,14.27-.17,3.38,1.41,9.52,2.4,11.65Z"/>
        <path class="cls-40" d="M735.75,799.87c1.07.58,2.3.62,3.59.49,2.3-.23,4.77-.98,6.78-.16.97.4,1.83,1.16,2.92,1.12,1.27-.05,2.42-1.23,2.96-2.51.68-1.59.66-3.32.88-4.96.64-4.87,2.22-9.74,4.61-14.2.84-1.56,1.95-3.21,3.54-3.69,1.71-.52,3.34-.51,4.98-.28,1.83.25,3.59.68,5.45.81,3.31.23,6.74-.11,10.09-1.02,1.32-.36,2.64-.8,3.93-1.33.54-.22,1.08-.46,1.62-.71,1.09-2.05.28-5.44-1.23-6.79-.14-.12-.28-.24-.43-.35-1.47-1.07-3.43-1.37-5.34-1.34-1.2.02-2.44.15-3.52-.25-1.66-.62-2.62-2.42-2.82-4.32-.22-2,.3-4,.74-6.01.34-1.57.23-3.34-.23-5.01-.6-2.19-1.81-4.19-3.39-5.29-.8-.56-1.8-.93-2.9-1.12-3.42-.58-7.78.65-9.88,3.7-.89,1.29-2.01,2.42-3.26,3.31-1.62,1.15-3.46,1.91-5.3,2.15-2.27.29-4.49-.17-6.74-.1-.83.03-1.89.03-2.66.58-2.2,1.58-.16,4.23,1.02,5.25,1.72,1.47,3.81,2.47,5.59,3.88,2.01,1.6,3.69,4.06,3.24,6.9-.35,2.24-1.92,4.18-3.41,5.98-2.02,2.45-4.02,4.93-5.98,7.42-.86,1.1-1.72,2.2-2.57,3.3-2.25,2.92-4.73,6.29-4.61,10.01.06,1.93.81,3.71,2.34,4.54Z"/>
        <path class="cls-39" d="M753.87,749.38c2.08,2.05,4.54,2.38,7.04,2.6,1.94.17,3.91.28,5.74,1.09,4.15,1.83,8.18,2.92,12.38,1.7,1.62-.47,3.46-1.2,4.48-2.57.72-.97.94-2.18,1.03-3.41.03-.43.05-.86.07-1.29.37-8.77,1.94-17.45,4.66-25.74,1.47-4.47,3.38-8.98,6.9-12.13.47-.42.95-.96,1.19-1.52.33-.75.23-1.51-.9-1.98-1.88-.79-3.96-.84-5.98-1-.02,0-.04,0-.06,0-6.63-.52-13.19-2.37-19.16-5.4-.62-.31-1.27-.65-1.93-.87-3.38-1.12-5.19,2.29-6.48,4.68-.48.9-.9,1.82-1.29,2.77-1.39,3.43-2.29,7.13-3.52,10.64-3.01,8.56-8.31,16.89-7.07,25.98.16,1.17.44,2.34.9,3.44s1.1,2.15,1.97,3.01Z"/>
        <path class="cls-20" d="M835.03,811.68c.92,1.59,1.73,3.25,2.91,4.68,1.13,1.37,2.62,2.58,4.27,3.63,2.9,1.84,6.26,3.41,9.68,4,.78.13,1.56.27,2.33.52.99.33,1.98.85,2.99,1.18,1.13.37,2.28.5,3.46-.17.53-1.6.92-3.61.19-5.15-.83-1.76-2.52-3.19-3.92-4.53-8.39-8.04-13.51-16.88-18.56-26.51-1.64-3.13-3.27-6.34-5.01-9.64.49-5.51,2.03-10.44,3.8-15.54.39-1.11.78-2.23,1.18-3.36,2.49-7.03.03-15.03-4.19-21.4-.94-.48-1.93-.86-2.96-1.14-1.49-.41-3.04-.62-4.59-.62-2.89.01-5.74.77-8.01,2.33-2.57,1.76-4.24,4.5-5.84,7.06-1.67,2.65-3.34,5.3-5.01,7.94-2.38,3.77-4.71,7.11-5.68,11.34-1.23,5.32-.12,11.02.89,16.34,1.83.93,3.61,1.93,5.34,3.01,7.93,4.9,14.92,11.21,20.95,18.21,1.1,1.28,2.17,2.58,3.17,3.93.93,1.25,1.8,2.54,2.58,3.89Z"/>
        <path class="cls-26" d="M821.57,764.14c1.04,1.23,3.08,1.31,6.61.18,3.16-1.02,7.59-12.12,8.95-15.16,1.45-5.11,2.42-11.14,2.95-16.39.56-5.56-.25-14.18-2.1-17.41-2.19-3.81-4.01-2.65-7.9.85-1.74,1.57-7.46,7.12-10.46,20.9-1.08,4.96-1.77,10.01-1.61,15.1.12,3.54,2.32,9.8,3.56,11.92Z"/>
        <path class="cls-40" d="M780.2,812.41c1.13.5,2.39.43,3.68.2,2.31-.42,4.74-1.4,6.85-.74,1.02.32,1.95,1.02,3.05.88,1.28-.16,2.35-1.45,2.79-2.79.55-1.67.39-3.42.47-5.1.23-4.99,1.42-10.05,3.46-14.76.71-1.65,1.7-3.42,3.27-4.04,1.69-.67,3.34-.8,5.01-.71,1.87.1,3.69.39,5.59.36,3.37-.05,6.81-.69,10.13-1.89,1.31-.47,2.6-1.04,3.87-1.68.53-.27,1.06-.56,1.57-.86.93-2.17-.18-5.53-1.82-6.77-.15-.11-.31-.22-.47-.31-1.58-.95-3.59-1.1-5.52-.9-1.21.12-2.46.36-3.59.04-1.73-.49-2.85-2.23-3.22-4.13-.39-2-.03-4.07.24-6.15.21-1.62-.05-3.41-.65-5.05-.8-2.16-2.19-4.08-3.88-5.07-.86-.5-1.91-.79-3.04-.89-3.51-.29-7.82,1.32-9.68,4.58-.79,1.39-1.83,2.62-3.02,3.63-1.54,1.3-3.34,2.23-5.19,2.63-2.28.49-4.56.21-6.84.47-.84.1-1.91.19-2.64.81-2.09,1.79.19,4.29,1.48,5.22,1.86,1.35,4.07,2.17,5.99,3.45,2.17,1.44,4.08,3.79,3.87,6.71-.16,2.3-1.59,4.4-2.94,6.34-1.84,2.65-3.65,5.33-5.42,8.02-.78,1.18-1.55,2.37-2.32,3.56-2.03,3.15-4.25,6.77-3.81,10.53.23,1.95,1.14,3.69,2.75,4.4Z"/>
        <path class="cls-39" d="M793.68,761.54c2.38,1.96,5.01,2.07,7.67,2.08,2.07,0,4.16-.06,6.17.62,4.55,1.54,8.91,2.31,13.25.67,1.67-.63,3.56-1.56,4.52-3.08.68-1.07.8-2.36.8-3.65,0-.45-.02-.9-.04-1.35-.38-9.17.53-18.36,2.69-27.24,1.17-4.79,2.79-9.67,6.25-13.26.46-.48.92-1.09,1.13-1.69.28-.81.11-1.59-1.13-1.99-2.06-.65-4.26-.52-6.41-.51-.02,0-.04,0-.06,0-7.06.05-14.16-1.3-20.74-3.93-.68-.27-1.4-.56-2.11-.73-3.67-.87-5.29,2.84-6.44,5.46-.43.98-.8,1.98-1.12,3.01-1.17,3.7-1.8,7.64-2.79,11.4-2.44,9.19-7.32,18.34-5.21,27.71.27,1.2.67,2.4,1.25,3.51s1.35,2.14,2.35,2.96Z"/>
        <path class="cls-20" d="M880.81,815.39c1.06,1.5,2.01,3.09,3.31,4.41,1.24,1.27,2.84,2.34,4.57,3.24,3.05,1.59,6.54,2.86,9.99,3.14.79.07,1.58.13,2.37.32,1.01.24,2.05.68,3.08.92,1.16.27,2.32.3,3.43-.47.39-1.64.6-3.67-.26-5.15-.98-1.68-2.79-2.96-4.3-4.17-9.05-7.28-14.93-15.64-20.79-24.79-1.91-2.97-3.81-6.03-5.83-9.17,0-5.53,1.11-10.58,2.43-15.81.29-1.14.59-2.29.89-3.45,1.87-7.22-1.27-14.97-6.04-20.96-.97-.39-2-.69-3.04-.88-1.52-.28-3.09-.35-4.62-.21-2.88.26-5.65,1.27-7.78,3.02-2.41,1.98-3.83,4.86-5.21,7.54-1.43,2.78-2.87,5.57-4.3,8.35-2.04,3.96-4.07,7.5-4.67,11.8-.76,5.4.84,10.99,2.31,16.2,1.9.77,3.76,1.61,5.59,2.53,8.32,4.19,15.84,9.87,22.45,16.32,1.21,1.18,2.39,2.38,3.5,3.64,1.04,1.17,2.02,2.38,2.91,3.65Z"/>
        <path class="cls-26" d="M863.27,769.19c1.14,1.14,3.18,1.04,6.6-.4,3.06-1.29,6.51-12.74,7.6-15.88,1-5.22,1.44-11.31,1.51-16.58.08-5.59-1.49-14.11-3.61-17.16-2.51-3.6-4.23-2.3-7.79,1.53-1.6,1.72-6.81,7.75-8.61,21.73-.65,5.03-.9,10.13-.29,15.18.42,3.51,3.17,9.56,4.58,11.57Z"/>
        <path class="cls-40" d="M826.25,820.87c1.17.4,2.41.22,3.68-.13,2.26-.62,4.6-1.81,6.76-1.33,1.04.23,2.03.85,3.12.61,1.26-.27,2.21-1.65,2.54-3.02.4-1.71.09-3.44.02-5.12-.2-4.99.54-10.13,2.17-15.01.57-1.7,1.39-3.55,2.9-4.31,1.63-.82,3.26-1.08,4.93-1.14,1.87-.07,3.71.06,5.6-.13,3.36-.34,6.72-1.28,9.92-2.76,1.26-.59,2.5-1.26,3.71-2.01.5-.32,1-.65,1.49-.99.74-2.24-.66-5.49-2.4-6.58-.16-.1-.32-.19-.49-.27-1.66-.81-3.67-.78-5.58-.42-1.19.23-2.42.57-3.57.36-1.77-.33-3.04-1.98-3.57-3.83-.56-1.96-.39-4.06-.3-6.15.07-1.63-.34-3.39-1.09-4.98-.98-2.08-2.54-3.88-4.31-4.71-.9-.42-1.97-.62-3.1-.62-3.53.01-7.68,2-9.25,5.41-.67,1.45-1.6,2.77-2.7,3.88-1.42,1.43-3.13,2.51-4.94,3.07-2.23.68-4.52.6-6.77,1.06-.83.17-1.89.35-2.56,1.04-1.93,1.96.57,4.26,1.93,5.08,1.97,1.18,4.24,1.81,6.26,2.92,2.29,1.25,4.39,3.42,4.44,6.34.04,2.3-1.2,4.52-2.38,6.57-1.6,2.8-3.17,5.62-4.71,8.47-.67,1.25-1.34,2.5-2,3.75-1.75,3.31-3.65,7.11-2.88,10.82.4,1.92,1.45,3.58,3.12,4.14Z"/>
        <path class="cls-39" d="M835.25,769.03c2.54,1.74,5.17,1.63,7.82,1.41,2.06-.17,4.14-.42,6.2.09,4.66,1.14,9.08,1.53,13.26-.48,1.61-.77,3.41-1.87,4.23-3.46.58-1.13.6-2.42.48-3.7-.04-.45-.1-.9-.16-1.34-1.17-9.1-1.07-18.34.31-27.37.74-4.88,1.94-9.87,5.07-13.75.41-.51.82-1.17.98-1.78.21-.83-.03-1.6-1.3-1.88-2.11-.47-4.29-.15-6.43.05-.02,0-.04,0-.06,0-7.03.66-14.22-.06-21-2.11-.7-.21-1.44-.44-2.17-.54-3.74-.54-5.02,3.29-5.94,6-.34,1.01-.62,2.04-.86,3.09-.85,3.78-1.12,7.76-1.79,11.6-1.63,9.36-5.7,18.91-2.78,28.06.37,1.17.88,2.34,1.55,3.39s1.54,2.02,2.6,2.75Z"/>
        <path class="cls-20" d="M930.42,820.43c1.24,1.52,2.38,3.13,3.85,4.44,1.42,1.25,3.19,2.27,5.1,3.09,3.36,1.44,7.14,2.52,10.82,2.55.84,0,1.68.01,2.53.15,1.09.17,2.22.56,3.34.73,1.25.2,2.47.13,3.59-.78.28-1.78.34-3.97-.69-5.47-1.17-1.71-3.19-2.93-4.89-4.1-10.17-7.04-17.06-15.48-24.01-24.77-2.26-3.02-4.52-6.13-6.91-9.31-.44-5.9.31-11.37,1.29-17.07.21-1.24.44-2.49.66-3.75,1.39-7.85-2.57-15.87-8.09-21.87-1.06-.34-2.17-.57-3.29-.7-1.63-.18-3.29-.13-4.91.15-3.02.51-5.87,1.81-7.98,3.85-2.38,2.3-3.65,5.49-4.9,8.46-1.29,3.09-2.58,6.17-3.87,9.26-1.83,4.39-3.69,8.33-3.98,12.96-.36,5.82,1.78,11.66,3.76,17.09,2.07.66,4.11,1.42,6.11,2.25,9.14,3.8,17.55,9.25,25.07,15.6,1.37,1.16,2.72,2.35,4,3.6,1.19,1.16,2.33,2.37,3.38,3.66Z"/>
        <path class="cls-26" d="M908.1,772.56c1.3,1.12,3.45.85,6.94-.96,3.13-1.62,5.85-14.11,6.75-17.56.63-5.65.6-12.18.25-17.81-.38-5.97-2.72-14.93-5.21-18.01-2.95-3.64-4.66-2.11-8.12,2.26-1.55,1.96-6.57,8.81-7.33,23.88-.27,5.42-.12,10.88.93,16.22.73,3.71,4.13,9.94,5.79,11.97Z"/>
        <path class="cls-40" d="M873.16,830.69c1.27.33,2.57.04,3.88-.43,2.34-.85,4.72-2.3,7.04-1.96,1.12.16,2.22.74,3.35.4,1.31-.39,2.2-1.94,2.43-3.43.29-1.86-.18-3.68-.39-5.46-.62-5.31-.26-10.85,1.07-16.19.46-1.86,1.18-3.9,2.72-4.83,1.65-1,3.36-1.42,5.12-1.62,1.97-.22,3.93-.23,5.91-.59,3.52-.63,7.01-1.91,10.27-3.75,1.29-.73,2.55-1.54,3.76-2.45.51-.38,1.01-.77,1.5-1.18.6-2.45-1.14-5.81-3.08-6.83-.18-.09-.36-.18-.54-.25-1.82-.73-3.94-.54-5.94,0-1.25.34-2.51.81-3.75.67-1.9-.21-3.37-1.86-4.09-3.8-.75-2.05-.74-4.3-.81-6.53-.06-1.75-.64-3.59-1.56-5.22-1.21-2.14-3-3.93-4.94-4.68-.98-.38-2.13-.5-3.33-.41-3.73.3-7.96,2.75-9.34,6.52-.59,1.6-1.46,3.08-2.54,4.35-1.39,1.64-3.11,2.93-4.97,3.67-2.3.91-4.74,1.01-7.07,1.68-.86.25-1.97.53-2.62,1.31-1.88,2.25.95,4.5,2.45,5.26,2.18,1.1,4.63,1.59,6.86,2.61,2.52,1.15,4.92,3.3,5.21,6.41.23,2.46-.9,4.92-1.98,7.21-1.46,3.12-2.89,6.26-4.29,9.41-.61,1.38-1.21,2.77-1.81,4.16-1.58,3.67-3.28,7.88-2.17,11.77.58,2.02,1.83,3.7,3.64,4.17Z"/>
        <path class="cls-39" d="M878.47,774.65c2.83,1.65,5.6,1.32,8.39.87,2.17-.35,4.34-.78,6.57-.41,5.03.84,9.72.9,13.98-1.58,1.64-.95,3.45-2.27,4.19-4.04.52-1.25.43-2.63.2-3.99-.08-.48-.18-.95-.28-1.41-1.98-9.62-2.62-19.48-1.9-29.23.39-5.26,1.25-10.69,4.24-15.08.4-.58.77-1.31.89-1.98.15-.9-.16-1.7-1.52-1.9-2.27-.33-4.55.18-6.8.57-.02,0-.04,0-.06.01-7.38,1.27-15.04,1.08-22.38-.55-.76-.17-1.56-.35-2.34-.41-4-.28-5.05,3.92-5.79,6.88-.28,1.11-.49,2.23-.65,3.37-.59,4.11-.56,8.37-.95,12.52-.96,10.12-4.48,20.64-.66,30.16.49,1.22,1.12,2.42,1.91,3.49s1.79,2.03,2.97,2.72Z"/>
        <path class="cls-20" d="M985.28,820.62c1.43,1.39,2.77,2.89,4.42,4.04,1.58,1.1,3.49,1.92,5.52,2.53,3.57,1.07,7.52,1.72,11.25,1.32.85-.09,1.7-.18,2.58-.15,1.13.05,2.32.3,3.46.35,1.29.05,2.52-.15,3.54-1.21.08-1.83-.12-4.05-1.34-5.46-1.39-1.6-3.57-2.59-5.42-3.58-11.11-5.94-19.07-13.68-27.18-22.27-2.64-2.79-5.29-5.67-8.07-8.61-1.13-5.92-1.01-11.55-.69-17.42.07-1.28.15-2.57.23-3.87.49-8.11-4.45-15.76-10.73-21.19-1.11-.22-2.26-.33-3.41-.32-1.67,0-3.35.25-4.95.72-3,.87-5.73,2.51-7.63,4.82-2.14,2.61-3.06,5.98-3.97,9.13-.95,3.27-1.89,6.55-2.84,9.82-1.35,4.65-2.77,8.86-2.52,13.58.31,5.94,3.16,11.59,5.79,16.86,2.17.43,4.32.95,6.45,1.56,9.69,2.78,18.84,7.32,27.19,12.86,1.52,1.01,3.02,2.06,4.47,3.17,1.34,1.04,2.63,2.13,3.84,3.31Z"/>
        <path class="cls-26" d="M954.88,769.99c1.45.98,3.59.46,6.92-1.78,2.98-2.01,4.27-14.96,4.78-18.55-.02-5.79-.81-12.4-1.83-18.05-1.08-6-4.49-14.79-7.37-17.62-3.4-3.34-4.96-1.59-7.95,3.24-1.34,2.17-5.62,9.68-4.64,25.02.35,5.52,1.14,11.02,2.83,16.31,1.18,3.67,5.34,9.58,7.25,11.44Z"/>
        <path class="cls-40" d="M923.12,833.88c1.59.23,3.11-.17,4.61-.76,2.67-1.06,5.29-2.74,8.15-2.59,1.38.07,2.8.58,4.11.14,1.51-.51,2.32-2.16,2.34-3.71.02-1.92-.86-3.75-1.43-5.55-1.67-5.37-2.2-11.07-1.53-16.64.23-1.94.75-4.08,2.44-5.16,1.82-1.16,3.8-1.73,5.9-2.07,2.34-.39,4.7-.56,7.03-1.09,4.14-.94,8.12-2.52,11.74-4.68,1.43-.85,2.8-1.79,4.1-2.81.55-.43,1.08-.87,1.6-1.33.3-2.56-2.39-5.84-4.9-6.73-.23-.08-.46-.15-.7-.21-2.33-.6-4.85-.23-7.16.49-1.44.45-2.89,1.03-4.41.99-2.33-.06-4.39-1.63-5.59-3.55-1.27-2.03-1.64-4.33-2.12-6.61-.37-1.78-1.4-3.61-2.79-5.21-1.83-2.09-4.3-3.77-6.78-4.38-1.25-.31-2.66-.34-4.09-.14-4.45.61-9.12,3.46-10.13,7.43-.43,1.68-1.23,3.27-2.3,4.66-1.39,1.79-3.24,3.25-5.36,4.16-2.61,1.12-5.54,1.42-8.24,2.3-1,.33-2.28.7-2.94,1.56-1.88,2.45,1.92,4.52,3.87,5.17,2.83.94,5.86,1.25,8.73,2.1,3.24.97,6.51,2.97,7.4,6.12.7,2.49-.23,5.1-1.13,7.53-1.22,3.31-2.4,6.63-3.53,9.97-.5,1.46-.98,2.93-1.46,4.4-1.26,3.89-2.58,8.33-.56,12.21,1.05,2.01,2.85,3.63,5.12,3.96Z"/>
        <path class="cls-39" d="M925.13,775.56c3.06,1.34,5.82.69,8.59-.1,2.15-.61,4.3-1.3,6.6-1.18,5.18.26,9.94-.23,13.96-3.23,1.55-1.16,3.23-2.69,3.77-4.57.38-1.33.13-2.71-.26-4.06-.14-.47-.29-.94-.44-1.4-3.13-9.5-4.92-19.4-5.33-29.36-.22-5.37.02-10.96,2.54-15.75.33-.63.63-1.42.67-2.11.05-.93-.36-1.7-1.76-1.75-2.33-.07-4.58.72-6.82,1.37-.02,0-.04.01-.06.02-7.32,2.15-15.09,2.85-22.71,2.05-.79-.08-1.62-.17-2.41-.14-4.08.18-4.65,4.55-5.06,7.64-.15,1.15-.24,2.31-.27,3.48-.12,4.22.41,8.54.5,12.78.21,10.35-2.13,21.4,2.85,30.59.64,1.18,1.41,2.32,2.34,3.31.94,1,2.05,1.84,3.32,2.41Z"/>
        <path class="cls-20" d="M1037.76,819.11c1.59,1.41,3.09,2.94,4.9,4.08,1.74,1.09,3.81,1.87,6,2.42,3.85.96,8.09,1.45,12.03.83.9-.14,1.8-.28,2.74-.29,1.2,0,2.48.21,3.7.2,1.37,0,2.67-.29,3.71-1.46,0-1.96-.33-4.31-1.7-5.74-1.55-1.63-3.93-2.58-5.95-3.54-12.11-5.76-20.97-13.6-30.03-22.33-2.95-2.84-5.91-5.77-9.02-8.76-1.51-6.25-1.66-12.24-1.61-18.51.01-1.36.03-2.74.05-4.14.11-8.66-5.53-16.55-12.49-22.01-1.2-.18-2.42-.23-3.64-.17-1.78.09-3.55.44-5.22,1.02-3.15,1.08-5.96,2.96-7.87,5.52-2.15,2.89-2.95,6.52-3.76,9.92-.84,3.53-1.68,7.06-2.52,10.6-1.2,5.02-2.49,9.57-1.99,14.58.63,6.3,3.95,12.18,7.01,17.66,2.33.35,4.65.8,6.93,1.34,10.45,2.46,20.41,6.84,29.56,12.32,1.67,1,3.32,2.04,4.91,3.15,1.48,1.03,2.91,2.13,4.25,3.33Z"/>
        <path class="cls-26" d="M1002.88,766.75c1.59.97,3.84.31,7.26-2.24,3.07-2.29,3.79-16.15,4.14-19.99-.31-6.17-1.49-13.16-2.86-19.13-1.45-6.33-5.53-15.52-8.73-18.38-3.79-3.38-5.35-1.44-8.29,3.85-1.32,2.37-5.49,10.59-3.66,26.87.66,5.85,1.77,11.68,3.84,17.22,1.44,3.85,6.16,9.93,8.29,11.81Z"/>
        <path class="cls-40" d="M972.34,836.38c1.7.17,3.3-.33,4.86-1.04,2.79-1.26,5.49-3.18,8.54-3.17,1.47,0,3.01.47,4.37-.06,1.58-.62,2.36-2.42,2.3-4.06-.07-2.05-1.11-3.94-1.8-5.84-2.05-5.63-2.9-11.67-2.47-17.63.15-2.08.59-4.39,2.33-5.62,1.88-1.33,3.96-2.03,6.17-2.51,2.47-.53,4.97-.83,7.42-1.51,4.35-1.21,8.51-3.1,12.24-5.57,1.48-.98,2.89-2.04,4.22-3.2.56-.48,1.11-.98,1.64-1.49.19-2.74-2.84-6.1-5.55-6.91-.25-.07-.5-.14-.75-.19-2.5-.52-5.17,0-7.59.88-1.51.55-3.02,1.24-4.63,1.28-2.48.05-4.75-1.51-6.13-3.5-1.45-2.1-1.97-4.53-2.59-6.93-.49-1.88-1.67-3.78-3.23-5.4-2.05-2.14-4.77-3.8-7.43-4.32-1.35-.26-2.84-.23-4.35.05-4.7.87-9.52,4.15-10.4,8.42-.37,1.81-1.14,3.54-2.21,5.07-1.38,1.98-3.28,3.63-5.49,4.7-2.72,1.32-5.82,1.79-8.64,2.87-1.04.4-2.39.86-3.04,1.81-1.87,2.71,2.28,4.72,4.38,5.31,3.05.86,6.3,1.03,9.39,1.8,3.5.87,7.08,2.83,8.18,6.15.87,2.62.01,5.44-.82,8.07-1.13,3.58-2.22,7.18-3.25,10.79-.45,1.58-.9,3.17-1.33,4.76-1.14,4.2-2.32,9,.02,13.03,1.22,2.09,3.21,3.72,5.64,3.96Z"/>
        <path class="cls-39" d="M971.53,774.19c3.32,1.27,6.23.44,9.13-.54,2.26-.76,4.51-1.6,6.95-1.59,5.53.02,10.56-.74,14.68-4.15,1.58-1.31,3.3-3.03,3.78-5.06.34-1.43,0-2.89-.48-4.31-.17-.5-.36-.99-.54-1.47-3.81-9.96-6.22-20.41-7.15-30.98-.5-5.71-.54-11.67,1.9-16.9.32-.69.6-1.54.6-2.28,0-.99-.47-1.8-1.97-1.77-2.48.04-4.84.99-7.18,1.81-.02,0-.04.02-.06.02-7.67,2.66-15.91,3.8-24.04,3.33-.84-.05-1.73-.1-2.57-.03-4.32.4-4.71,5.08-5,8.39-.11,1.23-.13,2.48-.11,3.72.09,4.5.87,9.07,1.18,13.58.75,11.01-1.18,22.89,4.58,32.42.74,1.22,1.62,2.4,2.66,3.4s2.27,1.86,3.65,2.39Z"/>
        <path class="cls-20" d="M1090.75,811.1c1.7,1.35,3.32,2.84,5.22,3.89,1.82,1.01,3.97,1.68,6.2,2.09,3.93.72,8.22.93,12.13.01.89-.21,1.79-.42,2.73-.49,1.2-.09,2.5.04,3.73-.06,1.38-.11,2.66-.49,3.61-1.79-.15-2.03-.65-4.46-2.13-5.85-1.68-1.59-4.13-2.4-6.23-3.26-12.58-5.13-22.05-12.65-31.79-21.09-3.17-2.74-6.36-5.58-9.7-8.47-1.97-6.39-2.57-12.61-2.98-19.13-.09-1.42-.17-2.85-.26-4.3-.53-9.01-6.76-16.82-14.15-22-1.21-.1-2.45-.07-3.67.08-1.77.22-3.53.71-5.17,1.43-3.08,1.34-5.77,3.51-7.49,6.3-1.94,3.15-2.48,6.99-3.04,10.59-.58,3.73-1.17,7.46-1.75,11.2-.83,5.31-1.8,10.13-.92,15.31,1.1,6.51,4.86,12.38,8.34,17.86,2.37.2,4.72.5,7.06.9,10.67,1.82,20.99,5.66,30.58,10.71,1.75.92,3.48,1.88,5.16,2.93,1.56.97,3.07,2.01,4.51,3.16Z"/>
        <path class="cls-26" d="M1051.88,759.13c1.67.9,3.88.05,7.13-2.85,2.91-2.6,2.61-17.06,2.69-21.09-.77-6.39-2.46-13.57-4.27-19.69-1.92-6.48-6.69-15.75-10.12-18.5-4.05-3.25-5.48-1.12-8.04,4.59-1.15,2.56-4.73,11.41-1.7,28.2,1.09,6.04,2.64,12.02,5.12,17.63,1.72,3.9,6.91,9.88,9.19,11.69Z"/>
        <path class="cls-40" d="M1026.35,833.7c1.72.05,3.29-.58,4.81-1.43,2.71-1.51,5.27-3.7,8.34-3.9,1.48-.09,3.06.28,4.39-.38,1.54-.76,2.19-2.68,2.01-4.39-.22-2.12-1.4-4.02-2.23-5.94-2.47-5.71-3.77-11.93-3.78-18.16,0-2.17.27-4.6,1.93-6.01,1.79-1.51,3.82-2.39,6-3.05,2.44-.73,4.93-1.22,7.33-2.1,4.28-1.56,8.31-3.82,11.88-6.66,1.41-1.12,2.75-2.33,4-3.62.53-.54,1.04-1.1,1.53-1.67-.02-2.86-3.3-6.14-6.08-6.79-.26-.06-.51-.11-.77-.15-2.55-.36-5.19.37-7.55,1.46-1.48.68-2.94,1.51-4.56,1.66-2.48.23-4.88-1.23-6.41-3.2-1.61-2.08-2.31-4.57-3.11-7.02-.63-1.92-1.95-3.81-3.64-5.39-2.22-2.07-5.06-3.61-7.77-3.96-1.37-.18-2.87-.04-4.37.36-4.65,1.24-9.25,4.99-9.82,9.5-.24,1.91-.88,3.77-1.84,5.43-1.24,2.16-3.02,4-5.16,5.28-2.64,1.57-5.71,2.28-8.47,3.59-1.02.49-2.33,1.07-2.92,2.1-1.68,2.95,2.63,4.74,4.79,5.21,3.13.68,6.4.62,9.56,1.2,3.57.65,7.31,2.44,8.66,5.81,1.07,2.66.41,5.66-.23,8.45-.87,3.81-1.7,7.63-2.47,11.46-.34,1.68-.67,3.36-.98,5.04-.84,4.45-1.67,9.52.98,13.55,1.37,2.09,3.5,3.64,5.96,3.71Z"/>
        <path class="cls-39" d="M1020.95,769.09c3.43,1.09,6.28.01,9.12-1.21,2.21-.95,4.41-1.98,6.86-2.15,5.55-.37,10.55-1.52,14.43-5.36,1.49-1.47,3.09-3.39,3.42-5.53.24-1.51-.21-3.01-.8-4.45-.21-.5-.43-1-.65-1.49-4.55-10.08-7.74-20.78-9.46-31.71-.93-5.9-1.4-12.1.66-17.7.27-.74.49-1.64.44-2.41-.07-1.03-.6-1.83-2.1-1.7-2.49.22-4.78,1.38-7.07,2.39-.02,0-.04.02-.06.03-7.51,3.31-15.69,5.08-23.89,5.17-.85,0-1.74.02-2.58.16-4.31.72-4.36,5.62-4.4,9.07-.02,1.29.05,2.58.16,3.88.42,4.68,1.54,9.37,2.18,14.04,1.56,11.4.5,23.89,6.98,33.39.83,1.22,1.8,2.38,2.92,3.35s2.41,1.77,3.84,2.23Z"/>
        <path class="cls-20" d="M1141.47,797.13c1.78,1.25,3.48,2.65,5.43,3.59,1.88.91,4.05,1.45,6.31,1.73,3.97.5,8.26.46,12.11-.68.88-.26,1.76-.52,2.69-.65,1.2-.16,2.5-.1,3.72-.27,1.37-.18,2.63-.64,3.51-1.99-.27-2.02-.9-4.41-2.46-5.72-1.77-1.49-4.26-2.16-6.4-2.9-12.85-4.41-22.73-11.38-32.93-19.25-3.32-2.56-6.67-5.21-10.17-7.91-2.33-6.27-3.28-12.44-4.06-18.93-.17-1.41-.33-2.84-.5-4.28-1.04-8.97-7.71-16.41-15.38-21.17-1.22-.03-2.45.07-3.66.29-1.76.32-3.48.91-5.08,1.72-3,1.52-5.56,3.83-7.12,6.71-1.76,3.26-2.08,7.12-2.43,10.74-.37,3.76-.74,7.52-1.11,11.28-.53,5.35-1.22,10.21-.05,15.33,1.47,6.44,5.55,12.09,9.34,17.36,2.37.06,4.74.23,7.1.5,10.76,1.21,21.27,4.46,31.14,8.96,1.8.82,3.58,1.68,5.32,2.63,1.61.88,3.18,1.84,4.69,2.9Z"/>
        <path class="cls-26" d="M1099.71,747.45c1.72.8,3.88-.17,6.95-3.25,2.76-2.76,1.64-17.18,1.49-21.2-1.13-6.33-3.23-13.41-5.38-19.41-2.28-6.36-7.57-15.34-11.15-17.89-4.23-3.01-5.53-.81-7.76,5.04-1,2.62-4.07,11.66-.1,28.25,1.43,5.97,3.32,11.85,6.11,17.31,1.94,3.8,7.46,9.48,9.84,11.15Z"/>
        <path class="cls-40" d="M1078.46,823.34c1.72-.05,3.25-.77,4.72-1.7,2.62-1.66,5.06-3.99,8.1-4.36,1.47-.18,3.07.1,4.36-.62,1.49-.84,2.03-2.8,1.76-4.5-.34-2.11-1.63-3.94-2.57-5.81-2.79-5.56-4.44-11.7-4.8-17.91-.13-2.17,0-4.61,1.58-6.11,1.7-1.61,3.68-2.61,5.82-3.38,2.4-.87,4.85-1.5,7.2-2.51,4.19-1.8,8.08-4.29,11.48-7.33,1.34-1.2,2.61-2.48,3.79-3.85.49-.57.97-1.16,1.44-1.76-.18-2.86-3.64-5.94-6.46-6.44-.26-.05-.52-.08-.78-.1-2.57-.22-5.16.67-7.46,1.88-1.44.76-2.85,1.67-4.46,1.91-2.46.37-4.95-.95-6.58-2.83-1.73-1.98-2.56-4.43-3.5-6.83-.73-1.88-2.17-3.69-3.94-5.17-2.33-1.95-5.26-3.32-7.99-3.51-1.38-.1-2.87.13-4.34.61-4.57,1.51-8.95,5.51-9.26,10.04-.13,1.92-.67,3.81-1.53,5.53-1.12,2.22-2.79,4.17-4.85,5.56-2.54,1.72-5.57,2.6-8.25,4.07-.99.54-2.27,1.2-2.8,2.26-1.51,3.04,2.9,4.59,5.08,4.93,3.16.5,6.42.26,9.61.66,3.6.45,7.44,2.02,8.98,5.31,1.22,2.59.73,5.63.25,8.45-.66,3.85-1.26,7.71-1.81,11.58-.24,1.7-.47,3.39-.7,5.09-.59,4.49-1.13,9.6,1.75,13.47,1.49,2.01,3.7,3.43,6.16,3.37Z"/>
        <path class="cls-39" d="M1069.41,759.14c3.48.89,6.27-.35,9.04-1.72,2.15-1.07,4.29-2.23,6.73-2.53,5.52-.69,10.44-2.12,14.11-6.17,1.41-1.56,2.89-3.56,3.1-5.71.15-1.52-.38-2.99-1.05-4.4-.24-.49-.49-.97-.74-1.45-5.12-9.81-8.91-20.31-11.24-31.12-1.26-5.84-2.08-12-.34-17.71.23-.76.39-1.67.3-2.43-.12-1.03-.71-1.8-2.2-1.58-2.47.36-4.7,1.65-6.92,2.79-.02.01-.04.02-.06.03-7.31,3.73-15.37,5.96-23.56,6.52-.85.06-1.74.11-2.57.3-4.26.97-4.03,5.86-3.88,9.31.06,1.29.19,2.58.38,3.86.69,4.64,2.07,9.26,2.97,13.89,2.2,11.29,1.85,23.82,8.86,32.94.9,1.17,1.94,2.27,3.1,3.18s2.51,1.63,3.96,2.01Z"/>
      </g>
    </g>
    <g id="Sternum">
      <path class="cls-22" d="M773.55,536.58c3.27-2.94,5.62-6.74,8.34-10.2,2.93-3.73,6.33-7.09,10.08-9.98.45-.34.93-.72,1.06-1.27.33-1.37-1.61-2.07-3.02-2.04-8.39.22-16.32,4.42-22.38,10.24-6.06,5.81-10.44,13.14-14.22,20.63-.59,1.18-2.64,6.34-.23,7.01.82.22,5-4.48,6.04-5.22,4.62-3.3,10.06-5.34,14.33-9.17Z"/>
      <path class="cls-2" d="M746.15,518.44c-5.81,5.86-28.98,24.48-27.03,31.46,5.15,10.3,20.56,14.41,29.81,7.17,7.37-5.76,9.69-15.86,15.55-23.16,10.57-13.18,30.06-14.77,43.75-24.68,16.38-14.3,19.83-20.72,42.7-23.18,13.96-5.42,26.97-13.43,42.53-13.63,28.09-2.83,56.23-7.71,84.42-4.37,23.77-4.84,47.6-13.85,72.28-7.7,3.47.65,7.15,1.46,10.41,0,4.08-1.53,5.14-7.88.93-9.63-19.26-12.11-44.22-8.38-66.19-9.61-29.43-1.25-58.78.83-87.46,7.72-52.94,10.15-106.13,25.92-148.98,59.85"/>
      <path class="cls-12" d="M1057.21,459.48c1.43.62,2.68-1.64,1.88-2.98-.8-1.33-2.5-1.75-4.03-2.05-7.8-1.52-15.59-3.03-23.39-4.55-5.99-1.16-12.15-2.33-18.15-1.2-5.16.98-9.95,3.63-15.17,4.18-7.37.79-14.82-2.68-22.11-1.33-4.59.85-8.73,3.56-13.37,4.08-6.97.77-13.55-3.5-20.55-3.94-10.08-.64-19.46,6.69-29.53,5.82-3.48-.3-6.84-1.58-10.33-1.8-10.69-.66-19.39,8.44-29.74,11.2-9.87,2.63-21.06-.59-30.15,4.07-4.42,2.26-7.88,6.21-12.49,8.08-3.71,1.5-7.83,1.52-11.81,1.94-10.82,1.16-21.28,5.57-29.66,12.52-8.59,7.12-14.96,16.75-24.11,23.13-8.04,5.6-17.72,8.34-26.2,13.26-8.48,4.92-16.2,13.32-15.67,23.1.38,6.95,10.64,10.82,17.44,9.33,6.8-1.49,12.13-6.77,16.23-12.4,4.1-5.63,7.44-11.88,12.37-16.79,9.21-9.18,22.62-12.49,33.69-19.31,7.04-4.34,13.1-10.11,20.02-14.64,7.01-4.6,14.79-7.88,22.62-10.85,25.15-9.53,51.47-16.14,78.24-18.78,13.79-1.36,27.67-1.67,41.51-.92,11.04.6,22.2,1.86,33.1-.02,8.78-1.52,17.1-5.03,25.84-6.81,8.18-1.67,16.68-1.78,24.9-.33,3.4.6,6.92.99,8.59-2.03Z"/>
      <path class="cls-38" d="M725.04,555.16c.92,1.24,2.31,2.01,3.68,2.65,3.06,1.44,6.44,2.26,9.8,2.18,2.3-.05,4.58-.55,6.67-1.49,1.12-.51,2.19-1.14,3.16-1.88.86-.66,1.65-1.42,2.34-2.25,2.18-2.65,3.18-6.03,3.68-9.38.22-1.48.36-3,.28-4.49-.05-.94-.18-1.87-.43-2.76-.17-.63-.4-1.25-.7-1.84-.62-1.24-1.38-2.21-2.25-2.96-1.62-1.38-3.62-1.97-5.77-2-3.18-.04-6.68,1.14-9.78,2.78-1.39.74-2.7,1.57-3.86,2.42-.52.38-1.02.79-1.51,1.21-.69.6-1.34,1.25-1.95,1.93-3.08,3.45-5.26,8.31-4.51,13.01.17,1.04.51,2.04,1.14,2.88Z"/>
      <path class="cls-38" d="M841.43,481.95c1.81,2.09,4.74,2.96,7.44,2.73,3.01-.26,5.84-1.66,8.45-3.21.99-.59,2.01-1.27,2.87-2.07,1.18-1.09,2.06-2.4,2.16-3.97.09-1.32-.44-2.57-1.3-3.57s-2.07-1.77-3.34-2.15c-1.68-.49-3.41-.54-5.13-.27-2.74.43-5.43,1.69-7.75,3.3-2.03,1.4-5.12,3.33-4.81,6.21.12,1.11.71,2.2,1.41,3.01Z"/>
      <path class="cls-38" d="M888.13,468.73c2.4,2.59,6.14,2.84,9.65,2.32,1.64-.24,3.24-.64,4.62-1.05,1.74-.51,3.49-1.11,4.93-2.21.58-.44,1.06-.96,1.43-1.52,1.26-1.89,1.32-4.3-.37-6.21-2.1-2.37-5.13-3.03-8.22-2.73-3.21.31-6.49,1.66-8.87,3.17-2.09,1.33-4.57,3.63-4.27,6.06.09.72.43,1.45,1.1,2.17Z"/>
      <path class="cls-38" d="M786.94,511.87c4.56,1.57,9.84-.12,14.46-2.51,2.16-1.12,4.16-2.39,5.89-3.56,2.16-1.46,4.3-3.03,5.75-4.98.58-.78,1-1.6,1.25-2.41.84-2.72-.23-5.37-3.49-6.57-4.05-1.49-8.55-.62-12.68,1.32-4.29,2.02-8.18,5.19-10.74,8.09-2.25,2.54-4.58,6.34-3,8.82.47.74,1.29,1.36,2.56,1.8Z"/>
      <path class="cls-38" d="M926.61,463.95c2.79,1.49,6.31,1.63,9.41,1.68,3.88.06,7.77-.48,11.22-2.19.69-.34,1.46-.85,2.12-1.47,1.25-1.18,2.06-2.76,1.02-4.39-.5-.79-1.38-1.24-2.25-1.6-2.98-1.22-6.56-1.8-10.14-1.75-3.77.05-7.54.78-10.61,2.16-1.95.87-4.22,2.65-3.22,5.07.44,1.06,1.41,1.95,2.45,2.5Z"/>
      <path class="cls-38" d="M966.42,461.75c.73,1.84,2.65,2.92,4.55,3.49,2.98.9,6.1.89,9.21.52,1.78-.21,3.56-.55,5.31-.9,1.69-.34,3.41-.72,4.91-1.57.9-.51,1.71-1.23,2.27-2.09,1.22-1.87.85-4.13-.56-5.78-2.22-2.6-5.85-2.7-9-2.67-4.48.04-10.83.24-14.35,2.75-1.31.93-2.31,2.42-2.56,3.97-.12.77-.07,1.55.23,2.29Z"/>
      <path class="cls-38" d="M1005.66,456.72c.71,1.13,2.07,1.73,3.4,1.87,2.17.23,4.42-.42,6.55-.71,1.82-.25,3.66-.44,5.49-.58,1.43-.11,2.9-.19,4.21-.76,1.02-.44,1.94-1.26,2.34-2.27.63-1.58-.27-3.23-1.58-4.15-2.06-1.44-5.64-2.02-9.26-1.86-3.95.18-7.93,1.24-9.97,3.04-.89.78-1.51,1.93-1.66,3.09-.1.81.03,1.62.47,2.32Z"/>
    </g>
    <g id="Right_1st_rib">
      <path class="cls-15" d="M646.45,744.98c3.73-2.26,7.59-4.65,10.6-7.75.74-.76,1.42-1.56,2.04-2.41,2.48-3.41,3.19-7.52,5.01-11.25,1.81-3.72,4.81-6.77,6.62-10.5,1.19-2.44,1.83-5.04,2.11-7.72.48-4.58-.07-9.39-.66-14.01-.07-.54-.14-1.1-.44-1.56-.47-.73-1.4-.98-2.27-.84-1.77.28-2.68,2.04-3.4,3.5-.95,1.92-1.9,3.86-2.86,5.83-2.45,5.03-4.92,10.2-7.34,15.41-4.17,8.98-8.18,18.09-11.7,26.84-.61,1.53.65,4.41,2.29,4.45Z"/>
      <path class="cls-14" d="M641.13,744.71c.42.52.9,1,1.43,1.43,2.78,2.29,7.2-.27,9.63-2.93,1.47-1.61,2.55-3.5,3.44-5.5.58-1.3,1.08-2.65,1.57-3.99,1.13-3.12,2.19-6.26,3.23-9.42,4.39-13.34,8.26-26.87,13.87-39.73,5.27-12.08,12.04-23.44,18.78-34.76,3.64-6.11,7.27-12.21,10.91-18.32,3.63-6.09,7.18-12.4,10.61-18.81,5.32-9.95,10.83-18.5,15.32-28.54.15-.34-.95-2.12-1.3-2-5.32,1.79-12.38,4.4-17.34,7.03-1.42,3.23-2.87,6.44-4.35,9.64-2.17,4.69-4.41,9.36-6.7,13.99-4.65,9.38-9.56,18.63-14.72,27.74-2.17,3.84-4.39,7.66-6.53,11.52-1.54,2.79-3.04,5.6-4.45,8.45-3.33,6.77-6.14,13.79-9.21,20.69-5.69,12.79-12.3,25.17-19.75,37.02-2.74,4.36-5.64,8.76-6.8,13.77-1,4.35-.4,9.34,2.37,12.72Z"/>
      <path class="cls-33" d="M708.89,594.47c.85-.51,1.27-1.03,2.14-1.5,1.26-.68,2.54-1.32,3.84-1.92,2.6-1.2,5.49-2.25,8.29-2.02.63.05,1.24.16,1.85.35.76.23,1.25.56,1.91,1.01.46-.87.91-1.76,1.37-2.64.57-1.11,1.05-2.26,1.55-3.4.61-1.39,1.2-2.79,1.8-4.17,2.97-6.89,6.11-13.47,12.48-17.49,2.86-1.81,4.95-4.65,6.28-7.77,1.55-3.61,2.1-7.55,2.4-11.44.23-2.99.28-6.19-1.28-8.75-.71-1.17-1.73-2.11-2.9-2.81-2.34-1.38-5.13-1.7-7.78-1.22-2.15.39-4.23,1.28-6.12,2.39-2.44,1.43-4.69,3.07-6.47,5.08-.73.83-1.39,1.71-1.94,2.67-.59,1.01-1.06,2.1-1.4,3.28-1.55,5.37-3.12,10.73-4.72,16.09-2.85,9.54-5.79,19.05-8.8,28.53-.2.62-.44,1.25-.73,1.88-.61,1.35-1.29,2.67-1.75,3.85Z"/>
    </g>
  </g>
  <g id="Rescuer_hands">
    <g id="Left_hand">
      <path class="cls-23" d="M934.11,375c-.82-1.39-1.77-2.69-2.86-3.88-2.24-2.45-5-4.3-8.16-5.23-.89-.26-1.8-.46-2.76-.57-1.14-.13-2.17-.05-3.1.19-4.44,1.15-6.77,6.07-9.64,10.77-.54.88-1.11,1.74-1.72,2.55-5.28,6.98-10.69,13.72-17.39,19.57-.89.77-1.87,1.45-2.9,2.06-.36.21-.72.41-1.09.61-3.29,1.78-6.91,2.96-10.16,4.21-1.99.77-3.96,1.58-5.91,2.45-1.13.5-2.26,1.02-3.38,1.56-3.34,1.59-6.6,3.33-9.79,5.2-1.02.6-2.07,1.25-2.97,2.02-.93.79-1.7,1.73-2.17,2.88-.79,1.92-.65,4.12-.58,6.14.07,1.91.53,3.57,1.1,5.22,1.06,3.07,3.22,5.52,5.24,7.88,2,2.33,4.49,4.1,7.5,4.9,2.04.54,4.13.58,6.22.33,2.59-.31,5.17-1.08,7.65-1.91,6.16-2.07,12.16-4.59,17.96-7.52,4.08-2.06,8.06-4.32,11.92-6.78,3.84-2.45,7.56-5.1,11.12-7.94,3.38-2.7,6.63-5.66,9.48-8.9,4.46-5.07,7.93-10.83,9.37-17.35,1.36-6.18.26-12.97-2.97-18.45Z"/>
      <path class="cls-23" d="M974.42,370.14c-1.44-4.26-1.78-6.72-5.62-9.06-2.12-1.15-4-1.02-6.85,2.5-.38.47-.76.94-1.2,1.46-1.55,1.82-2.01,2.67-2.4,3.38-2.18,4.05-1.73,2.76-2.71,5.65-.85,2.51-2.05,10.23-3.16,12.57-.58,1.22-1.11,2.45-1.6,3.69-4.58,11.64-5.17,23.69-8.75,35.27-.95,3.08-2.12,6.13-3.63,9.12-1.81,3.59-3.37,7.28-2.01,11.32.57,1.68,1.51,3.26,2.6,4.66,1.25,1.6,2.73,3.02,4.37,4.21,1.03.75,2.13,1.41,3.27,1.96,3.06,1.49,6.5,2.25,9.91,2.01,4.73-.34,9.34-2.55,12.45-6.09,3.36-3.83,4.31-8.88,5.15-13.75.26-1.48.51-2.96.84-4.43.98-4.38,2.57-8.6,3.98-12.86.87-2.63,1.67-5.27,2.23-7.98,1.14-5.63,1.17-11.32.49-16.98-1.14-9.52-4.28-17.49-7.37-26.63Z"/>
      <path class="cls-23" d="M1047.93,415.19c-2.79-9.83-2.83-20.19-5.65-30.02-.61-2.12-1.27-4.26-2.46-6.11-.83-1.29-1.87-2.4-3.02-3.42-1.07-.95-2.23-1.82-3.38-2.67-1.27-.95-2.25-2.31-3.08-3.88-1.21-2.28-2.1-5-3.12-7.55-1.14-2.84-2.42-5.46-4.47-7.01-.02-.01-.03-.02-.05-.04-1.09-.81-7.57.23-8.9-.07-1.31-.3-2.51.64-3.54,2.13-1.83,2.65-3.1,7.06-3.36,9.43-.1.94-.08,1.88.04,2.81.34,2.72,1.48,5.37,2.47,7.96,3.33,8.67,5.08,17.56,5.58,26.6.31,5.56.15,11.17-.4,16.82-.34,3.53-.07,7.18.77,10.74.83,3.54,2.22,7,4.1,10.14.54.9,1.12,1.78,1.75,2.63,2.52,3.43,5.77,6.57,9.63,8.44,2.47,1.19,5.2,1.91,7.93,2.09,2.45.16,4.89-.12,7.12-.86,2.68-.9,5.06-2.48,6.8-4.81.52-.69.96-1.42,1.34-2.17,1.31-2.6,1.8-5.51,1.78-8.51-.03-4.55-3.27-9.56-4.52-13.95-.89-3.12-2.46-5.57-3.35-8.69Z"/>
      <path class="cls-23" d="M1110.16,419.37c-3.79-4.09-7.66-8.94-10.14-13.73-2.02-3.91-5.6-6.92-8.18-10.61-1.07-1.53-2.15-3.06-3.25-4.53-.49-.65-.99-1.29-1.5-1.93-2.2-2.74-4.57-5.24-7.36-7.2-1.36-.95-2.81-1.78-4.4-2.44-1.51-.63-3.15-1.09-4.78-1.12-.65-.01-1.3.03-1.94.17-2,.43-3.58,1.54-4.8,3.06-2.39,2.96-3.46,7.46-3.72,11.45-.31,4.71-.59,9.71.41,14.29.37,1.69.92,3.33,1.7,4.88.45.89.98,1.75,1.6,2.57,2.69,3.55,6.15,6.83,9.73,9.98,3.17,2.79,6.45,5.47,9.36,8.13,1.87,1.71,3.77,3.44,5.92,4.76.6.37,1.22.71,1.87,1,4.64,2.13,6.49,3.17,11.46,2.68,2.21-.22,5.99-1.7,7.85-2.87,4.91-3.08,8.41-10.31,4.15-14.46-1.27-1.24-2.63-2.61-3.99-4.09Z"/>
      <path class="cls-23" d="M862.46,407.62c4.45.34,8.99-1.19,13.01-3.27,4.92-2.54,5.71-9.35,10.87-11.53,2.82-1.19,5.56-2.78,8.11-4.69,3.69-2.76,6.96-6.19,9.47-10,2.82-4.28,4.68-9.05,5.09-13.92.2-2.34.06-4.7-.47-7.04-6.36-1.74-13.17-.05-19.26,2.49-1.84.77-3.64,1.61-5.44,2.47-3.98,1.89-7.92,3.84-12.11,5.16-3.45,1.08-7.47,1.8-10.2,4.37-1.14,1.08-1.92,2.44-2.08,4.24-.09,1-.24,1.99-.48,2.96-.22.91-.53,1.79-.93,2.64-3.21,6.7-5.39,8.03-7.86,10.18-1.16,1.01-2.86,2.8-2.72,4.53.21,2.65,2.11,5.39,3.99,7.24,2.79,2.76,7.07,3.86,11.03,4.16Z"/>
      <path class="cls-23" d="M1118.11,171.03c-7.5-6.88-18.18-11.85-28.57-18.06-7.16-3.65-11.09-6.31-21.43-9.73-11.25-3.72-18.09-5.47-30.53-7.51-9.89-1.62-27.33-.46-27.33-.46,0,0-1.1,4.78-1.44,7.01-.26,1.69-.51,3.37-.76,5.06-1.19,8.02-2.3,16.04-3.34,24.08-.8,6.17-1.55,12.35-2.25,18.54-1.1,9.64-3.12,17.5-5.16,26.99-3.06,14.26-7.42,29.72-12.78,43.28-1.24,3.15-2.49,6.29-3.73,9.44-2.67,6.75-5.34,13.51-8.01,20.26-.4,1-.65,2.02-.77,3.04-.87,7.36,4.92,15.02,9.68,21.18,5.38,6.96,11.17,13.68,17.77,19.46,1.38,1.21,2.8,2.38,4.26,3.5,1.11.85,2.24,1.68,3.4,2.48,4.93,3.4,10.35,6.21,16.02,8.12,5.73,1.93,11.74,2.94,17.78,2.71,3.79-.15,8.44-1.23,11.7-3.36.3-.19.58-.39.85-.6.8-10,5.85-19.51,10.94-28.15,3.25-5.53,6.44-11.1,9.56-16.7,7.1-12.77,13.84-25.75,20.22-38.9,3.07-6.35,6.06-12.73,8.96-19.16,7.63-16.89,14.65-34.06,21.06-51.45.66-1.78,3.07-8.63,3.07-8.63,0,0-2.46-6.28-9.16-12.44Z"/>
    </g>
    <g id="Right_hand">
      <path class="cls-23" d="M1093.11,359.63c-.77-1.31-1.66-2.55-2.62-3.73-2.12-2.61-4.59-4.95-6.93-7.34-3.12-3.14-6.24-6.27-9.36-9.41-2.31-2.26-4.42-4.71-6.43-7.25-3.03-3.83-5.2-8.41-8.7-11.78-.88-.84-4.11-3.61-5.7-3.57-.47.01-.87.02-1.24.04-1.55-1.59-3.13-3.04-4.69-4.18-.49-.36-.98-.73-1.47-1.1-.5-.38-1-.77-1.5-1.15-13.93-10.63-27.95-21.18-42.92-30.28-.44-.27-.89-.6-1.34-.98-4.11-3.44-8.4-10.92-10.42-15.19-8.51-17.99-13.56-37.22-18.02-56.67-2.52-10.97-4.85-22-7.51-32.93-1.45-5.97-3.01-11.9-4.74-17.77-1.42-4.82-2.97-9.6-4.69-14.32-.73-2.01-1.49-4.01-2.29-6-6.67-.13-13.56.04-20.53.54-5.94.42-11.95,1.09-17.92,2-5.62.86-11.21,1.94-16.72,3.25-7.71,1.84-14.53,4.5-21.22,7.53-3.35,1.52-6.67,3.13-10.04,4.78-2.53,1.24-5.23,2.85-7.87,4.66-4.12,2.83-8.11,6.15-11.17,9.31,3.81,10.88,8.38,21.56,13.21,32.16,11.2,24.6,23.74,48.78,31.12,74.15,3.22,11.08,5.46,22.38,6.17,34.04.41,6.78.37,14.01-.34,21.17-.07.67-.14,1.33-.22,2-.57,4.86-1.47,9.66-2.76,14.25-.74,2.65-1.62,5.23-2.64,7.7-1.63,1.88-2.27,3.5-2.17,4.9-1.94,2.87-5.02,9.32-5.66,12.03-.01.05-.03.11-.04.17-.62,2.32-3.15,6.88-3.47,9.46-.02.18-.04.36-.03.52.02,3.67.54,6.88,1.15,10.01.64,3.26,1.8,7.1,3.08,10.45.37-.2.73-.4,1.09-.61,1.03-.62,2.01-1.29,2.9-2.06,6.62-5.78,11.99-12.44,17.21-19.34.56-.74,1.42-2,1.9-2.79,1.62-2.66,3.08-5.38,4.84-7.46.73-.86,1.73-1.4,2.82-1.69,1.36-.36,2.82-1.19,3.75-1.11.99.09,1.7.82,2.48,1.35.96.65,1.55,1.73,1.54,2.89-.04,4.57-1.1,8.51-3.17,14.99-1.17,3.65-3.17,7.21-4.75,10.84-.77,1.75-1.43,3.52-1.86,5.32-1.44,6.02,2.61,13.28,4.93,19.11,2.22,5.58,2.03,10.68,7.64,12.75,2.07.38,4.6,1.06,6.85.49,2.02-.51,5.44-.99,6.73-1.99,2.83-2.2,3.72-4.67,4.75-7.07,1.14-2.67,1.34-5.02,1.67-7.56.23-1.82.53-3.73,1.27-5.93.96-3.02.26-4.21,1.28-6.58.9-2.08,2.17-6.89,3.64-8.61,4.21-4.91,8.16-10.04,12.02-15.24,1.74-2.33,3.46-4.68,5.18-7.03,1.13-1.53,2.24-3.11,2.94-4.87.56,1.91,1.01,3.76,1.28,5.46,1.35,8.57,1.5,17.52,1.58,26.19.08,7.82.24,15.89,2.19,23.38.83,3.19,2,6.28,3.62,9.2,2.58,9.85,8.67,8.33,15.2,8.94,6.56.62,11.12.02,14.59-4,1.5-1.75,2.49-2.95,3.39-5.04.64-1.47,1.14-2.98,1.54-4.52,1.19-4.58,1.47-9.42,1.64-14.17.53-14.54.24-29.1-.09-43.65-.09-4.05-.1-8.25-.54-12.36,1.28,1.78,2.71,3.53,4.24,5.24,2.28,2.56,4.76,5.03,7.23,7.39,4.61,4.4,9.19,8.42,12.4,11.91,1.03,1.12,1.73,2.5,2.02,3.99,1.01,5.32,1.69,8.06,1.9,11.72.17,2.87.18,5.68.74,7.66,1.45,5.12,2.95,8.76,4.06,13.83.12.56.3,1.1.5,1.64.17.46.41.9.57,1.37,1.5,4.29,2.56,4.75,4.77,5.1,1.37.22,2.81-1.09,3.94-2.36,1.76-1.99,3.3-4.18,4.68-6.44,3.1-5.08,4.94-9.94,8.9-15.57.23-.33.46-.66.69-.99,2.55-3.73,4.88-7.82,4.88-12.3,0-4.49-2.25-8.46-4.59-12.21.63.18,1.26.39,1.86.64,1.58.66,3.04,1.49,4.4,2.44,2.79,1.95,5.16,4.45,7.36,7.2,1.73-2.13,3.49-4.25,4.68-6.27,1.19-2.01,4.48-6.02,4.42-8.32-.09-4.11-1-10.81-3.08-14.36Z"/>
    </g>
    <g id="Nails">
      <path id="Nail_L_2" class="cls-36" d="M863.1,428.43c5.36-2.19,10.73-5.16,15.57-8.45,1.02-.7,1.5-1.98,1.15-3.17-.45-1.5-1.57-2.85-2.94-3.65-2.06-1.2-5.4-2.18-7.68-1.47-6.24,1.96-11.97,4.2-16.95,8.07,1.82-.09,3.53.63,4.98,1.74,2.18,1.67,3.81,5.13,5.88,6.94Z"/>
      <path class="cls-36" d="M848.85,397.75c3.68-3.16,8.51-4.94,13.36-4.97,1,0,1.93-.56,2.36-1.46.72-1.49,1.21-3.14,1.52-4.79.29-1.54-.82-3.03-2.39-3.16-1.95-.17-4.01.29-5.3,1.52-3.29,3.16-6.69,7.14-9.4,10.81-.25.33-.49.69-.55,1.1s0,.83.4.94Z"/>
      <path class="cls-43" d="M964.64,441.41c.25.24.4.64.4.45s-.05-.38-.06-.58c-.2-3.33-.45-7.02-.66-10.47-.1-1.68-.92-3.25-2.27-4.26-1.84-1.38-4.06-2.26-6.36-2.46-3.28-.28-6.66.83-9.14,3-3.28,2.87-5.54,8.46-6.5,12.77-.02.09.07.16.16.12,4.63-2.32,10.57-1.54,15.74-1.04,2.71.26,5.5.55,7.89,1.84.18.1.65.49.8.64Z"/>
      <path class="cls-43" d="M1054.48,438.8c.25.14-3.49-6.65-5.66-10.95-.51-1.01-1.39-1.78-2.46-2.17-2.94-1.06-6.65-1.34-9.41-.5-2.05.63-3.96,1.72-5.54,3.17-.99.9-1.3,2.33-.82,3.59,1.51,3.94,3.05,8.16,4.48,12.02,2.74-3.27,7.3-4.14,11.49-4.96,2.55-.5,6.89-.76,7.93-.19Z"/>
      <path class="cls-43" d="M1097.92,411.03c-.91.84-1.76,1.75-2.33,2.84-.79,1.52-.54,3.92.5,5.29,2.08,2.74,4.26,5.8,6.44,8.4,1.59-1.18,3.35-2.13,5.3-2.5,1.95-.37,3.36,0,5.09.23-3.77-4.55-8.14-10.04-13.18-14.32-.53-.45-1.31-.42-1.81.05Z"/>
    </g>
  </g>
  <g id="Body_overlay">
    <path id="Lumbar_cut" class="cls-41" d="M1586.58,410.82c-18.12-3.89-45.67,12.81-60.15,136.16-2.21,18.79-4.05,36.74-5.8,56.41-4.56,51.18-3.28,148.48,5.09,193.51,1.64,8.81,7.01,27.06,10.44,34.58,8.22,18.02,22.79,36.35,34.28,12.71,13.74-28.26,9.8-64.07,18.12-67.69,4.65-2.02,5.24,13.99,10.64,14.52,21.15,2.08,29.49-152.89,14.48-301.6-1.64-16.28-8.03-74.51-27.09-78.6Z"/>
  </g>

</svg>
